<?xml version="1.0" standalone="no"?>
<!DOCTYPE svg PUBLIC "-//W3C//DTD SVG 1.1//EN" "http://www.w3.org/Graphics/SVG/1.1/DTD/svg11.dtd" >
<svg xmlns="http://www.w3.org/2000/svg">
<metadata>Generated by IcoMoon</metadata>
<defs>
<font id="icons" horiz-adv-x="512">
<font-face units-per-em="512" ascent="480" descent="-32" />
<missing-glyph horiz-adv-x="512" />
<glyph unicode="&#x20;" horiz-adv-x="256" d="" />
<glyph unicode="&#xe007;" glyph-name="check_B" d="M256 444.596c-118.29 0-214.196-95.906-214.196-214.196s95.906-214.196 214.196-214.196 214.196 95.906 214.196 214.196-95.906 214.196-214.196 214.196zM222.8 131.562l-98.557 98.57 37.859 37.859 60.684-60.711 128.745 128.745 37.859-37.859-166.591-166.605z" />
<glyph unicode="&#xe01d;" glyph-name="play_B" d="M256 42.333q70 0 120.5 50.5t50.5 120.5-50.5 120.5-120.5 50.5-120.5-50.5-50.5-120.5 50.5-120.5 120.5-50.5zM256 426.333q88 0 150.5-62.5t62.5-150.5-62.5-150.5-150.5-62.5-150.5 62.5-62.5 150.5 62.5 150.5 150.5 62.5zM213 117.333v192l128-96z" />
<glyph unicode="&#xe600;" glyph-name="fcbk" d="M287.935-32h-95.935v256h-64v88.225l64 0.029-0.104 51.976c0 71.976 19.517 115.77 104.299 115.77h70.588v-88.242h-44.115c-33.016 0-34.603-12.328-34.603-35.342l-0.131-44.162h79.345l-9.352-88.225-69.927-0.029-0.065-256z" />
<glyph unicode="&#xe601;" glyph-name="twt" d="M512 382.791c-18.838-8.354-39.082-14.001-60.33-16.54 21.686 13 38.343 33.585 46.186 58.115-20.298-12.039-42.778-20.78-66.705-25.49-19.16 20.415-46.461 33.17-76.673 33.17-58.011 0-105.044-47.029-105.044-105.039 0-8.233 0.929-16.25 2.72-23.939-87.3 4.382-164.701 46.2-216.509 109.753-9.042-15.514-14.223-33.558-14.223-52.809 0-36.444 18.544-68.596 46.73-87.433-17.219 0.546-33.416 5.271-47.577 13.139-0.010-0.438-0.010-0.878-0.010-1.321 0-50.894 36.209-93.348 84.261-103-8.813-2.4-18.094-3.686-27.674-3.686-6.769 0-13.349 0.66-19.764 1.886 13.368-41.73 52.16-72.103 98.126-72.948-35.95-28.175-81.243-44.967-130.458-44.967-8.479 0-16.84 0.497-25.058 1.47 46.486-29.805 101.701-47.197 161.021-47.197 193.211 0 298.868 160.062 298.868 298.872 0 4.554-0.103 9.084-0.305 13.59 20.528 14.81 38.336 33.31 52.418 54.374z" />
<glyph unicode="&#xe602;" glyph-name="menu" d="M64 362.667h384q8.834 0 15.084-6.25t6.25-15.083-6.25-15.084-15.084-6.25h-384q-8.834 0-15.084 6.25t-6.25 15.084 6.25 15.083 15.084 6.25zM64 106.667h384q8.834 0 15.084-6.25t6.25-15.084-6.25-15.084-15.084-6.25h-384q-8.834 0-15.084 6.25t-6.25 15.084 6.25 15.084 15.084 6.25zM64 234.667h384q8.834 0 15.084-6.25t6.25-15.084-6.25-15.084-15.084-6.25h-384q-8.834 0-15.084 6.25t-6.25 15.084 6.25 15.084 15.084 6.25z" />
<glyph unicode="&#xe603;" glyph-name="facebook_A" d="M514.427 222.786c0-142.055-115.159-257.214-257.214-257.214s-257.214 115.159-257.214 257.214c0 142.055 115.159 257.214 257.214 257.214s257.214-115.159 257.214-257.214zM279.052 72.341v138.313h46.105l7.279 53.384h-53.384v33.971c0 14.559 4.853 26.692 26.692 26.692h29.118v48.531c-4.853 0-21.839 2.426-41.251 2.426-41.251 0-70.37-24.265-70.37-70.369v-38.825h-46.105v-53.384h46.105v-138.313h55.81z" />
<glyph unicode="&#xe604;" glyph-name="phone_A" d="M514.427 222.786c0-142.055-115.159-257.214-257.214-257.214s-257.214 115.159-257.214 257.214c0 142.055 115.159 257.214 257.214 257.214s257.214-115.159 257.214-257.214zM320.303 378.086h-128.607c-12.132 0-21.839-9.706-21.839-24.266v-262.067c0-12.132 9.706-21.839 21.839-21.839h128.607c12.132 0 21.839 9.706 21.839 21.839v262.067c0 14.559-9.706 24.266-21.839 24.266v0zM223.242 363.526h63.090c2.426 0 4.853-2.427 4.853-4.853s-2.426-4.853-2.426-4.853h-65.517c0 0-2.427 2.427-2.427 4.853s2.427 4.853 2.427 4.853v0zM257.214 91.753c-7.28 0-14.559 7.279-14.559 14.559s7.28 14.559 14.559 14.559c7.279 0 14.559-7.279 14.559-14.559-2.426-7.279-7.279-14.559-14.559-14.559v0zM325.156 140.284h-138.313v198.976h140.739v-198.976z" />
<glyph unicode="&#xe605;" glyph-name="phone" d="M514.427 222.786c0-142.055-115.159-257.214-257.214-257.214s-257.214 115.159-257.214 257.214c0 142.055 115.159 257.214 257.214 257.214s257.214-115.159 257.214-257.214zM315.45 186.389l-21.839-21.839c-9.706-9.706-19.413 0-41.251 16.986-14.559 12.132-31.545 26.692-43.678 43.678-9.706 12.132-19.412 24.266-9.706 33.971 2.427 2.426 21.839 21.839 21.839 21.839v0c4.853 4.853 4.853 9.706 0 14.559v0l-50.958 50.958c-4.853 4.853-9.706 4.853-14.559 0l-21.839-21.839c-9.706-14.559-26.692-67.943 60.663-157.725 92.209-94.635 152.872-75.222 162.578-63.090v0l21.839 21.839c4.853 4.853 2.426 9.706 0 14.559v0c0 0-48.531 48.531-48.531 48.531-4.853 2.426-9.706 2.426-14.559-2.426z" />
<glyph unicode="&#xe606;" glyph-name="skype" d="M308.736 228.096c-5.632 3.584-12.288 6.656-20.48 9.216-7.68 2.56-16.896 5.12-26.624 6.656-7.68 2.048-13.312 3.072-16.384 4.096s-6.656 2.048-9.728 3.584c-3.072 1.536-5.632 3.584-7.168 5.632s-2.56 4.096-2.56 7.168c0 4.608 2.56 8.192 7.68 11.264 5.12 3.584 12.288 5.12 20.48 5.12 9.216 0 15.872-1.536 19.968-4.608s7.68-7.68 10.752-13.312c2.56-4.608 5.12-7.68 7.168-9.728 2.56-2.048 6.144-3.072 10.24-3.072 5.12 0 9.216 1.536 12.288 5.12s5.12 7.168 5.12 11.776c0 4.608-1.024 9.216-3.584 13.824s-6.144 9.216-11.776 13.312c-5.12 4.096-11.776 7.168-19.968 9.728-7.68 2.56-17.408 3.584-28.16 3.584-13.312 0-25.088-2.048-35.328-5.632s-17.92-9.216-23.040-16.384c-5.632-7.168-8.192-15.36-8.192-24.064 0-9.728 2.56-17.408 7.68-24.064 5.12-6.144 11.776-11.264 20.48-14.848 8.192-3.584 18.944-6.656 31.232-9.216 9.216-2.048 16.384-3.584 22.016-5.632 5.12-1.536 9.216-4.096 12.8-7.168 3.072-3.072 4.608-6.656 4.608-11.264 0-6.144-3.072-10.752-8.704-14.848s-13.312-6.656-23.552-6.656c-7.168 0-13.312 1.024-17.408 3.072s-7.68 4.608-10.24 7.68c-2.56 3.072-4.608 7.168-6.656 12.288-2.048 4.608-4.096 7.68-7.168 10.24s-6.656 3.584-10.752 3.584c-5.12 0-9.216-1.536-12.288-4.608-3.584-3.072-5.12-7.168-5.12-11.264 0-7.168 2.56-14.336 7.68-21.504s11.776-13.312 19.968-17.408c11.264-6.144 25.6-9.216 43.008-9.216 14.336 0 26.624 2.048 37.376 6.656s18.944 10.752 24.576 18.432c5.632 7.68 8.192 16.896 8.192 26.624 0 8.192-1.536 15.36-5.12 20.992-3.072 6.144-7.68 10.752-13.312 14.848zM256 474.88c-138.752 0-250.88-112.128-250.88-250.88s112.128-250.88 250.88-250.88c138.752 0 250.88 112.128 250.88 250.88s-112.128 250.88-250.88 250.88zM312.32 97.024c-11.776 0-23.040 3.072-32.768 8.192-7.168-1.536-14.336-2.048-22.016-2.048-66.048 0-119.808 53.76-119.808 119.808 0 8.192 1.024 16.384 2.56 24.064-6.144 10.24-9.728 22.528-9.728 35.328 0 38.4 31.232 69.632 69.632 69.632 13.824 0 26.112-4.096 36.864-10.752 6.656 1.024 13.312 1.536 20.48 1.536 66.048 0 119.808-53.76 119.808-119.808 0-8.704-1.024-17.408-2.56-25.6 4.608-9.216 7.168-19.968 7.168-30.72-0.512-38.912-31.744-69.632-69.632-69.632z" />
<glyph unicode="&#xe607;" glyph-name="googleplus" horiz-adv-x="535" d="M325.36 480h-133.675c-17.655 0-37.833-2.522-58.010-5.045-20.177-5.044-40.355-15.133-58.010-32.788-27.744-25.221-42.877-55.488-42.877-88.276 0-27.744 10.089-50.444 30.266-70.62 17.655-22.7 45.399-32.788 80.71-32.788 7.566 0 12.611 0 22.7 2.522 0-2.522-2.522-7.566-5.044-12.611-2.522-7.566-2.522-12.611-2.522-17.655 0-10.089 2.522-17.655 7.566-25.221s7.566-15.133 12.611-20.178c-15.133 0-35.31-2.522-58.010-5.045-22.7-5.045-45.399-12.611-68.099-25.221-20.177-12.611-32.788-25.221-40.355-40.354s-12.611-30.266-12.611-42.877c0-25.221 12.611-47.921 35.311-65.577 22.7-20.178 58.010-30.266 105.931-30.266 55.488 0 98.365 15.133 128.631 40.355 27.744 25.221 42.877 52.966 42.877 85.754 0 22.7-5.045 40.355-15.133 55.488s-22.7 27.744-37.832 37.832l-22.7 17.655c-2.522 2.522-7.566 7.567-10.089 12.611-5.044 5.045-5.044 10.089-5.044 17.655s2.522 12.611 5.044 20.178c2.522 5.044 7.566 10.089 10.089 15.133 7.566 5.044 12.611 12.611 20.178 17.655 5.045 5.045 10.089 12.611 15.133 20.178 10.089 15.133 15.133 32.788 15.133 58.010 0 12.611-2.522 25.221-5.045 35.311s-7.567 17.655-12.611 25.221c-5.045 7.566-10.089 15.133-15.133 20.178-2.522 2.522-7.566 5.044-12.611 7.566h40.355l42.877 25.221zM252.217 114.286c10.088-12.611 17.655-27.744 17.655-45.399 0-20.178-7.567-37.832-25.221-50.444s-40.355-20.178-73.143-20.178c-35.31 0-63.054 7.567-83.231 22.7s-32.788 35.31-32.788 58.010c0 12.611 2.522 22.7 7.566 30.266s10.089 15.133 15.133 20.178c7.567 5.045 12.611 10.089 17.655 12.611s10.088 5.045 15.133 5.045c15.133 5.045 27.744 7.567 42.877 10.089s22.7 2.522 25.221 2.522c5.044 0 10.089 0 15.133 0 27.744-20.178 45.399-32.788 58.010-45.399zM229.518 311.015c-2.522-7.567-5.044-17.655-10.089-25.221-12.611-12.611-25.221-17.655-42.877-20.178-15.133 0-25.221 5.044-37.833 12.611-12.611 10.089-20.177 20.178-27.744 32.788-15.133 25.221-20.177 50.443-20.177 75.665 0 17.655 5.044 35.31 15.133 50.443 12.611 15.133 27.744 22.7 45.399 22.7 12.611 0 25.221-5.044 35.31-12.611s17.655-17.655 25.221-30.266c12.611-27.744 20.178-52.965 20.178-80.709 0-7.567 0-15.133-2.522-25.221zM534.699 270.66v0h-70.62v73.143h-40.355v-70.62h-70.62v-42.877h70.62v-70.62h40.355v70.62h73.143l-2.522 40.354z" />
<glyph unicode="&#xe608;" glyph-name="ytb" horiz-adv-x="1228" d="M456.482 66.699h-46.265v27.759c-18.506-21.591-33.928-30.844-49.349-30.844s-24.675 6.168-27.759 18.506c-3.084 6.168-6.168 18.506-6.168 37.012v194.313h46.265v-185.060c0-9.253 0-15.421 0-18.506 0-6.168 3.084-9.253 9.253-9.253 9.253 0 18.506 9.253 27.759 21.591v191.229h46.265v-246.747zM293.012 233.253c0 27.759-6.168 46.265-15.421 58.603-9.253 15.421-30.844 21.59-49.35 21.59-21.59 0-40.096-6.168-52.434-24.675-9.253-9.253-15.422-30.843-15.422-55.518v-89.446c0-27.759 3.084-43.18 15.422-55.518 12.338-15.421 33.928-24.675 52.434-24.675s40.097 9.253 52.434 24.675c9.253 12.337 12.337 30.844 12.337 55.518v89.446zM246.747 137.639c3.084-24.675-6.168-37.012-18.506-37.012-15.422 0-21.59 12.337-18.506 37.012v98.699c-3.084 24.675 3.084 37.012 18.506 37.012s21.59-12.337 18.506-37.012v-98.699zM111.036 199.325v-135.711h-49.349v135.711c0 0-49.349 166.554-61.687 197.397h52.434l33.928-129.542 33.927 129.542h52.434l-61.686-197.397zM937.639 273.35c-6.168 0-15.422-3.085-21.591-12.338v-148.048c6.168-6.168 15.422-12.337 24.674-12.337 12.337 0 18.506 9.253 18.506 33.928v107.952c-3.085 24.675-9.253 30.844-21.591 30.844zM1119.614 245.59c0 21.59-6.168 30.843-21.591 30.843s-21.591-6.168-21.591-27.759v-27.759h40.097v24.674zM1221.398 368.964c0 0-6.168 49.349-27.759 70.94-27.759 27.759-58.602 27.759-74.024 30.844-104.868 9.253-259.084 9.253-259.084 9.253v0c0 0-154.217 0-256-6.168-15.422-3.084-46.265-3.084-74.024-30.844-21.591-21.59-27.759-70.94-27.759-70.94s-6.168-58.602-6.168-117.205v-55.518c0-58.603 6.168-117.205 6.168-117.205s6.168-49.349 27.759-70.94c27.759-27.759 64.771-27.759 80.193-30.844 58.602-6.168 249.832-6.168 249.832-6.168s154.217 0 256 6.168c15.421 3.084 46.265 3.084 74.024 30.844 21.591 21.591 27.759 70.94 27.759 70.94s6.168 58.603 6.168 117.205v52.434c3.084 58.602-3.084 117.205-3.084 117.205zM656.964 66.699h-49.35v280.675h-52.433v46.265h154.217v-46.265h-52.433v-280.675zM832.771 66.699h-46.265v27.759c-18.506-21.591-33.928-30.844-49.35-30.844s-24.674 6.168-27.759 18.506c-3.085 6.168-6.168 18.506-6.168 37.012v191.229h46.265v-181.976c0-9.253 0-15.421 0-18.506 0-6.168 3.085-9.253 9.253-9.253 9.253 0 18.506 9.253 27.759 21.591v185.060h46.265v-240.578zM1002.409 137.639c0-21.591-3.085-40.096-6.168-49.349-6.168-18.506-18.506-27.759-37.012-27.759-15.422 0-30.843 9.253-46.265 27.759v-24.675h-43.181v330.024h43.181v-107.952c15.422 18.506 30.843 27.759 46.265 27.759 18.506 0 30.843-9.253 33.928-27.759 3.085-9.253 6.168-24.674 6.168-49.35v-98.699zM1098.024 103.711c12.338 0 18.506 6.168 18.506 18.506 0 3.084 0 12.337 0 30.844h46.265v-6.168c0-15.421 0-24.675 0-27.759 0-9.253-6.168-18.506-9.253-27.759-12.338-18.506-30.843-27.759-52.434-27.759-24.675 0-40.097 9.253-52.434 24.675-9.253 12.337-15.421 30.844-15.421 55.518v86.362c0 24.674 6.168 46.265 15.421 58.602 12.338 15.421 30.843 24.675 52.434 24.675s40.097-9.253 52.434-24.675c9.253-12.338 15.421-30.844 15.421-58.602v-49.35h-89.446v-43.18c-3.084-24.675 3.084-33.928 18.506-33.928z" />
<glyph unicode="&#xe609;" glyph-name="enie" horiz-adv-x="550" d="M274.812 480c-194.658 0-274.812-97.329-274.812-218.377 0-103.055 49.074-189.751 194.658-212.652l-18.811-80.971 132.499 76.064c186.479 10.632 241.278 103.872 241.278 217.559 0 121.048-47.438 218.377-274.812 218.377zM274.812 92.32c-202.019 0-225.738 96.511-225.738 169.304 0 49.891 16.358 89.15 48.255 117.776 37.623 33.534 98.965 51.527 177.483 51.527 91.604 0 154.582-17.175 188.115-49.892 25.355-25.354 37.623-62.978 37.623-119.412 0-78.518-25.354-169.304-225.738-169.304zM332.064 305.789c-4.089 4.908-9.815 8.997-15.54 11.451-6.543 2.453-13.087 4.089-21.265 4.089-4.908 0-8.997-0.818-13.087-1.636s-7.361-2.453-11.45-4.089c-3.272-1.636-6.543-3.272-9.815-5.725s-5.725-4.908-8.997-7.361l-2.453 8.179c-0.818 2.453-2.453 4.089-4.089 5.725s-4.089 1.636-6.543 1.636h-26.99v-147.221h44.166v105.508c4.089 3.272 8.179 6.543 12.269 8.179 4.089 2.453 8.997 3.271 13.904 3.271 6.543 0 11.45-1.636 14.722-5.725s4.908-9.815 4.908-17.175v-93.24h44.166v94.058c0 8.179-0.818 15.54-3.272 22.083s-6.543 12.269-10.632 17.994zM258.454 347.501c1.636 1.636 3.272 1.636 5.725 1.636 1.636 0 3.272-0.818 5.725-1.636s4.089-2.453 7.361-3.271 5.725-2.454 8.179-3.272 6.543-1.636 9.815-1.636c4.908 0 8.997 0.818 13.087 2.453s7.361 4.090 10.632 7.361c3.272 3.272 4.908 7.361 6.543 12.269s2.454 9.815 2.454 16.358h-26.99c0-4.089-0.818-6.543-2.454-7.361s-3.272-1.636-5.725-1.636c-1.636 0-3.272 0.818-5.725 1.636s-4.089 2.454-7.361 3.272-5.725 2.454-8.179 3.272-6.543 1.636-9.815 1.636c-4.908 0-8.997-0.818-13.087-2.454s-7.361-4.089-10.632-8.179-4.907-7.361-6.543-12.269-2.453-9.814-2.453-16.358h26.991c0.818 4.907 0.818 7.361 2.454 8.179z" />
<glyph unicode="&#xe60a;" glyph-name="arrow_bottom" horiz-adv-x="1060" d="M529.902-32c-10.741 0-25.063 3.58-35.804 14.322l-476.196 404.587c-21.483 17.902-25.063 53.707-7.161 75.189s53.707 25.063 75.189 7.161l440.391-375.944 443.972 372.363c21.482 17.902 57.286 17.902 75.189-7.161 17.902-21.483 17.902-57.286-7.161-75.189l-476.196-401.007c-7.161-10.741-21.482-14.322-32.224-14.322z" />
<glyph unicode="&#xe60b;" glyph-name="brain" horiz-adv-x="514" d="M514.169 281.13c0 69.423-51.344 128-118.599 138.125-20.248 28.204-53.514 44.836-88.226 44.836-7.955 0-15.909-0.723-23.141-2.893-18.803 12.294-39.774 18.803-61.469 18.803-31.096 0-60.023-13.017-80.995-36.158-49.898-2.169-91.842-36.158-105.582-83.887-23.141-22.418-36.158-52.791-36.158-84.61 0-65.084 52.791-117.875 117.876-117.875 5.062 0 10.847 0.723 15.91 1.447 24.588-26.757 58.577-42.666 94.734-44.113 11.571-25.31 30.373-46.282 52.791-60.022 18.079-31.096 30.373-62.916 29.649-86.779l49.175 0.723 33.266 68.7c62.192 15.909 107.751 71.593 107.751 138.125 0 13.017-1.447 25.31-5.062 37.605 11.57 20.972 18.079 44.113 18.079 67.978zM451.254 229.062l-7.231-9.401 4.339-11.57c3.616-10.848 5.786-21.695 5.786-32.543 0-52.791-43.39-96.181-96.181-96.181-3.616 0-7.231 0-10.125 0.723-10.125 24.587-15.909 60.746 12.294 91.842 2.17 2.892 4.339 5.062 6.509 7.955 1.447 0.723 2.892 0.723 5.062 1.447 11.57 4.339 23.141 7.955 35.435-1.447 2.17-1.447 4.339-2.17 7.231-2.17 3.616 0 7.231 1.447 9.401 4.339 3.616 5.062 2.892 12.294-2.17 16.633-13.74 10.848-28.204 11.57-39.051 10.125 9.401 28.203 4.339 58.577-7.231 83.164 5.062 2.893 13.017 7.231 22.418 14.464 5.062 3.616 6.509 10.848 2.892 16.633-3.616 5.062-10.848 6.509-16.633 2.893-9.401-7.231-15.909-10.847-20.248-13.017 0 0.723-0.723 0.723-0.723 1.446-31.819 47.006-82.44 68.701-122.214 53.514-5.786-2.169-9.401-9.401-6.508-15.186 2.169-5.786 9.401-9.401 15.186-6.508 14.464 5.785 30.373 3.616 44.836-2.893-1.447-6.509-7.231-23.865-21.695-34.712-13.017-9.401-30.373-12.294-51.344-8.678-6.508 0.723-12.294-2.893-13.74-9.401s2.893-12.294 9.401-13.74c7.232-1.446 14.464-2.17 20.972-2.17 18.802 0 35.435 5.062 48.452 15.187 16.633 12.294 25.31 29.649 28.926 41.221 10.848-7.955 20.972-18.803 28.204-29.649s13.017-23.141 16.633-36.158c-10.848 2.169-26.034 2.169-42.666-7.231-5.786-2.893-7.231-10.125-4.339-15.91s10.125-7.232 15.909-4.339c15.909 9.401 28.926 4.339 33.988 1.446 0-17.356-6.509-35.435-20.248-51.345-28.926-32.543-30.373-70.147-21.695-101.243-25.31 10.848-44.836 31.819-54.238 58.577l-5.786 17.356-18.079-0.723c-2.169 0-4.339 0-7.232 0-29.649 0-56.407 13.74-74.486 37.605l-9.401 12.294-15.186-4.339c-6.508-1.447-13.017-2.17-18.802-2.17-39.051 0-70.87 31.819-70.87 70.87 0 20.972 9.401 40.497 25.311 54.238l5.785 5.062 1.447 7.232c7.231 31.819 36.158 54.96 68.701 54.96l15.91-0.723 7.232 10.125c11.571 16.633 31.096 26.034 50.621 26.034 15.186 0 29.649-5.062 40.497-15.187l10.125-8.678 13.017 4.339c28.926 10.124 60.022-2.893 75.209-28.204l6.509-10.848 12.294-0.723c48.452-2.893 86.779-43.39 86.779-92.565 0.723-18.079-5.062-36.158-15.187-52.068z" />
<glyph unicode="&#xe60c;" glyph-name="video" horiz-adv-x="757" d="M723.665-32h-690.294c-18.116 0-33.37 15.255-33.37 33.37v445.259c0 18.115 15.255 33.37 33.37 33.37h690.294c18.115 0 33.37-15.255 33.37-33.37v-445.259c0-18.115-15.255-33.37-33.37-33.37zM66.741 34.741h623.553v378.517h-623.553v-378.517zM314.637 297.892l127.762-73.416-127.762-74.368z" />
<glyph unicode="&#xe60d;" glyph-name="crown" horiz-adv-x="646" d="M388.909 411.28c0-37.953-30.767-68.72-68.72-68.72s-68.72 30.767-68.72 68.72c0 37.953 30.767 68.72 68.72 68.72s68.72-30.767 68.72-68.72zM645.663 411.28c0-37.953-30.767-68.72-68.72-68.72s-68.72 30.767-68.72 68.72c0 37.953 30.767 68.72 68.72 68.72s68.72-30.767 68.72-68.72zM137.44 411.28c0-37.953-30.767-68.72-68.72-68.72s-68.72 30.767-68.72 68.72c0 37.953 30.767 68.72 68.72 68.72s68.72-30.767 68.72-68.72zM570.148-32h-500.673c-15.858 0-27.941 12.838-27.941 27.941v367.009c0 11.327 6.797 21.899 17.368 25.675 10.573 4.531 22.655 2.265 30.962-6.041l105.722-104.213 105.722 104.212c11.327 10.573 28.696 10.573 39.269 0l105.722-104.212 105.722 104.212c8.307 8.307 20.389 10.573 30.207 6.042 10.572-4.531 17.369-14.348 17.369-25.675v-367.009c-0.755-15.103-13.593-27.941-29.452-27.941zM97.416 23.882h444.791v271.858l-77.026-76.272c-10.572-10.572-28.696-10.572-39.269 0l-105.723 104.213-105.722-104.213c-10.572-10.572-28.696-10.572-39.268 0l-77.781 76.272v-271.858z" />
<glyph unicode="&#xe60e;" glyph-name="diploma" horiz-adv-x="757" d="M233.594 109.11l-34.324 28.603-34.324-28.603 0.953 143.017h67.695zM723.665-32h-690.294c-18.116 0-33.37 15.255-33.37 33.37v445.259c0 18.115 15.255 33.37 33.37 33.37h690.294c18.115 0 33.37-15.255 33.37-33.37v-445.259c0-18.115-15.255-33.37-33.37-33.37zM66.741 34.741h623.553v378.517h-623.553v-378.517zM275.546 270.242c0-42.126-34.15-76.275-76.275-76.275s-76.275 34.15-76.275 76.275c0 42.126 34.15 76.276 76.275 76.276s76.275-34.15 76.275-76.276zM602.577 272.149h-262.197c-7.627 0-14.301 6.674-14.301 14.302s6.674 14.301 14.301 14.301h262.197c7.628 0 14.302-6.674 14.302-14.301 0-8.581-6.674-14.302-14.302-14.302zM602.577 213.036h-262.197c-7.627 0-14.301 6.674-14.301 14.302s6.674 14.302 14.301 14.302h262.197c7.628 0 14.302-6.674 14.302-14.302s-6.674-14.302-14.302-14.302zM602.577 148.201h-262.197c-7.627 0-14.301 6.674-14.301 14.301s6.674 14.301 14.301 14.301h262.197c7.628 0 14.302-6.674 14.302-14.301 0-8.581-6.674-14.301-14.302-14.301z" />
<glyph unicode="&#xe60f;" glyph-name="gift" horiz-adv-x="547" d="M525.261 369.874h-95.135c6.342 10.378 7.495 23.063-1.153 35.747-10.378 15.568 1.153 41.514-9.225 61.694s-54.775 16.721-87.063-14.414c-17.298-16.144-41.514-42.667-58.811-61.117-17.298 18.451-41.513 44.973-58.811 61.117-32.865 30.558-77.261 34.594-87.639 14.414s1.153-46.126-9.225-61.694c-8.072-12.108-6.919-25.369-1.153-35.747h-95.135c-12.108 0-21.91-9.802-21.91-21.91v-102.054c0-12.108 9.802-21.91 21.91-21.91h20.18v-235.243c0-11.531 9.225-20.757 20.757-20.757h421.478c11.531 0 20.757 9.225 20.757 20.757v235.243h20.18c12.108 0 21.91 9.802 21.91 21.91v102.054c0 12.108-9.802 21.91-21.91 21.91zM285.406 267.82v0 0 0zM503.351 267.82h-151.063l-13.262 58.234h164.901v-58.234zM43.82 326.054h187.964l-13.262-58.234h-174.702v58.234zM463.567 10.090h-379.387v213.91h124.541l-23.639-102.054 37.477 19.027 25.369-33.442 26.522 116.469h20.18l26.522-116.469 25.37 33.442 37.478-19.027-23.639 102.054h100.901v-213.91z" />
<glyph unicode="&#xe610;" glyph-name="line_chart" horiz-adv-x="690" d="M655.601 480h-621.768c-18.796 0-33.833-15.036-33.833-33.832v-445.087c0-18.796 15.037-33.832 33.833-33.832h622.52c18.796 0 33.832 15.036 33.832 33.832v445.087c-0.752 18.796-15.788 33.832-34.585 33.832zM622.52 34.913h-555.606v378.173h554.855v-378.173zM157.133 86.79c7.518 0 14.285 2.255 20.299 6.767l118.038 90.972 39.847-38.344c12.781-12.781 33.081-12.781 46.614-0.752l116.534 108.264-0.752-12.781c-0.752-11.278 8.27-20.3 18.796-21.051 0 0 0.752 0 0.752 0 10.525 0 19.548 8.27 20.299 19.548l3.759 87.213c0 5.263-1.504 11.278-6.014 15.037-3.759 3.759-9.774 6.014-15.037 6.014l-87.213-3.759c-11.277-0.752-19.548-9.774-18.796-21.052s9.774-19.547 21.051-18.796l18.796 0.752-94.731-87.965-37.592 36.84c-12.029 12.030-30.825 12.781-44.358 2.256l-140.593-109.016c-15.037-11.277-17.292-32.329-6.014-47.365 6.014-8.27 16.541-12.781 26.314-12.781z" />
<glyph unicode="&#xe611;" glyph-name="clock_A" d="M272.695 357.565c0 14.841-11.13 25.971-25.971 25.971s-25.971-11.13-25.971-25.971v-168.811h168.811c14.841 0 25.971 11.13 25.971 25.971s-11.13 25.971-25.971 25.971h-116.87v116.87zM256-32c-140.986 0-256 115.014-256 256s115.014 256 256 256c140.986 0 256-115.014 256-256s-115.014-256-256-256zM256 420.637c-107.594 0-196.637-89.043-196.637-196.637s89.043-196.637 196.637-196.637c107.594 0 196.637 89.043 196.637 196.637s-89.043 196.637-196.637 196.637z" />
<glyph unicode="&#xe612;" glyph-name="gear" d="M487.971 200.896h-18.484c-5.545 0-11.091 3.697-12.938 9.242s-3.697 9.242-5.545 14.787c-1.849 5.545-1.849 12.939 1.849 16.636l12.938 12.939c9.242 9.242 9.242 24.029 0 33.271l-22.18 22.18c-3.697 3.697-11.091 7.394-16.635 7.394s-12.938-1.849-16.635-7.394l-12.938-12.938c-1.849-1.849-5.545-3.697-9.242-3.697-1.849 0-5.545 0-7.394 1.848-5.545 1.849-9.242 3.697-14.787 5.545s-9.242 7.393-9.242 12.939v18.484c0 12.939-11.091 24.029-24.029 24.029h-29.574c-12.938 0-24.029-11.090-24.029-24.029v-18.484c0-5.545-3.697-11.091-9.242-12.939s-11.091-3.697-14.787-5.545c-1.849 0-3.697-1.848-7.393-1.848s-7.393 1.848-9.242 3.697l-12.939 12.938c-3.697 3.697-11.090 7.394-16.636 7.394s-12.939-1.849-16.636-7.394l-22.18-22.18c-3.697-3.697-7.393-11.090-7.393-16.636s1.849-12.938 7.393-16.635l12.939-12.939c3.697-3.697 3.697-11.090 1.849-16.636s-3.697-9.242-5.545-14.787c-1.849-5.545-7.393-9.242-12.939-9.242h-18.484c-12.939 0-24.029-11.091-24.029-24.029v-29.574c0-12.938 11.090-24.029 24.029-24.029h18.484c5.545 0 11.090-3.697 12.939-9.242s3.697-9.242 5.545-14.787c1.849-5.545 1.849-12.938-1.849-16.635l-12.939-12.938c-9.242-9.242-9.242-24.029 0-33.271l22.18-22.18c3.697-3.697 11.090-7.394 16.636-7.394s12.939 1.849 16.636 7.394l12.939 12.938c1.849 1.849 5.545 3.697 9.242 3.697 1.849 0 5.545 0 7.393-1.849 5.545-1.849 9.242-3.697 14.787-5.545s9.242-7.394 9.242-12.938v-18.484c0-12.938 11.091-24.029 24.029-24.029h29.574c12.938 0 24.029 11.091 24.029 24.029v18.484c0 5.545 3.697 11.091 9.242 12.938s9.242 3.697 14.787 5.545c1.849 0 3.697 1.849 7.394 1.849s7.394-1.849 9.242-3.697l12.938-12.938c3.697-3.697 11.091-7.394 16.635-7.394s12.938 1.849 16.635 7.394l22.18 22.18c9.242 9.242 9.242 24.029 0 33.271l-12.938 12.938c-3.697 3.697-3.697 11.091-1.849 16.635s3.697 9.242 5.545 14.787c1.849 5.545 7.394 9.242 12.938 9.242h18.484c12.938 0 24.029 11.091 24.029 24.029v29.574c0 12.938-11.091 24.029-24.029 24.029v0zM388.159 162.079c0-38.816-31.423-70.238-70.238-70.238s-70.238 31.423-70.238 70.238c0 38.816 31.423 70.238 70.238 70.238 38.816-1.849 70.238-31.423 70.238-70.238v0zM173.748 352.462c0 1.849 1.849 1.849 1.849 1.849h9.242c9.242 0 16.636 7.394 16.636 16.636v14.787c0 9.242-7.393 16.636-16.636 16.636h-7.393c0 0-1.849 1.848-1.849 1.848 0 1.849-1.849 5.545-3.697 7.394 0 1.849 0 3.697 0 3.697l7.393 7.394c5.545 5.545 5.545 16.635 0 22.18l-12.939 11.091c-1.849 3.697-5.545 3.697-11.090 3.697-3.697 0-7.393-1.849-11.090-3.697l-5.545-7.394c0 0-1.849 0-1.849 0s-1.849 0-1.849 0c-3.697 1.849-5.545 1.849-7.394 3.697-1.849 0-1.849 1.849-1.849 1.849v9.242c-1.849 9.242-9.242 16.635-16.635 16.635h-14.787c-9.242 0-16.636-7.394-16.636-16.635v-9.242c0 0-1.849-1.849-1.849-1.849-3.697-1.849-5.545-1.849-7.394-3.697 0 0-1.849 0-1.849 0-1.849 0-1.849 0-1.849 0l-7.394 7.394c-3.697 1.849-7.394 3.697-11.090 3.697s-7.394-1.849-11.090-5.545l-11.090-9.242c-5.545-5.545-5.545-16.635 0-22.18l7.393-7.394c0 0 0-1.848 0-3.697-1.849-1.848-1.849-3.697-3.697-7.393 0-1.849-1.849-1.849-1.849-1.849h-9.242c-9.242 0-16.636-7.394-16.636-16.635v-14.787c0-9.242 7.394-16.635 16.636-16.635h9.242c0 0 1.849-1.849 1.849-1.849 1.849-1.848 1.849-3.697 3.697-7.393 0-1.849 0-3.697 0-3.697l-7.393-5.545c-3.697-3.697-3.697-7.393-3.697-11.090s1.849-7.393 5.545-11.090l11.090-11.091c3.697-3.697 7.394-3.697 11.090-3.697s7.394 1.849 11.090 3.697l7.394 7.394c0 0 0 0 1.849 0 0 0 1.849 0 1.849 0 1.849-1.849 5.545-1.849 7.394-3.697 1.849 0 1.849-1.849 1.849-1.849v-9.242c0-9.242 7.394-16.635 16.635-16.635h14.787c9.242 0 16.636 7.393 16.636 16.635v7.394c0 0 1.849 1.848 1.849 1.848 0 1.849 1.849 3.697 5.545 3.697 0 0 1.849 0 1.849 0 1.849 0 1.849 0 1.849 0l7.393-7.393c1.849-1.849 5.545-3.697 9.242-3.697s7.393 1.849 11.090 3.697l11.090 12.939c5.545 5.545 5.545 16.635 0 22.18l-5.545 5.545c0 0 0 1.849 0 3.697 0 3.697 1.849 5.545 1.849 7.394v0zM131.234 378.339c0-16.635-14.787-31.422-31.422-31.422s-31.422 12.938-31.422 31.422c0 16.636 12.939 31.423 31.422 31.423s31.422-12.939 31.422-31.423v0z" />
<glyph unicode="&#xe613;" glyph-name="pencil" d="M431.158 480c43.531 0 80.842-35.239 80.842-80.842 0-18.656-6.219-35.239-16.583-47.676l-31.093-31.093-111.935 111.935 31.093 31.093c14.51 10.364 31.093 16.583 47.676 16.583v0zM31.093 111.029l-31.093-143.029 143.029 31.093 296.421 296.421-111.935 111.935-296.421-296.421z" />
<glyph unicode="&#xe614;" glyph-name="play_A" d="M256.911-32c-142.121 0-256.911 114.79-256.911 255.089 0 142.121 114.79 256.911 256.911 256.911s256.911-114.79 256.911-256.911c-1.822-140.299-116.612-255.089-256.911-255.089zM256.911 419.872c-109.324 0-196.783-87.459-196.783-196.783 0-107.502 87.459-196.783 196.783-196.783s194.961 89.281 194.961 196.783c0 109.324-87.459 196.783-194.961 196.783zM207.715 299.615l133.011-76.526-133.011-76.526z" />
<glyph unicode="&#xe615;" glyph-name="moon" horiz-adv-x="470" d="M194.431 25.421c-35.913 0-69.713 8.45-99.29 27.462-6.337 2.113-10.563 8.45-10.563 16.9s4.225 14.788 10.563 19.012c48.589 27.462 78.164 80.277 78.164 137.315s-29.576 107.739-78.164 137.315c-6.337 0-10.563 6.337-10.563 14.788s4.225 14.788 10.563 19.012c29.576 16.9 65.489 25.35 99.289 25.35 109.853 0 198.579-88.727 198.579-198.579s-88.727-198.579-198.579-198.579zM147.956 74.010c14.788-4.226 31.689-6.337 46.477-6.337 86.615 0 156.327 69.714 156.327 156.328 2.113 86.614-69.714 156.328-156.327 156.328-16.9 0-31.689-2.113-46.476-6.337 42.25-38.026 67.601-92.953 67.601-149.99 0-59.151-25.35-114.079-67.601-149.99z" />
<glyph unicode="&#xe616;" glyph-name="mic" horiz-adv-x="288" d="M256.911 192.114c0-47.373-47.374-96.57-96.57-96.57h-32.797c-47.374 0-96.57 47.373-96.57 96.57v96.57h-30.975v-96.57c0-63.772 63.772-127.545 127.544-127.545v-63.772h-94.748v-32.797h224.114v32.797h-96.57v63.772c63.772 0 127.544 63.772 127.544 127.545v96.57h-32.797v-96.57zM160.341 128.341c34.619 0 63.772 29.153 63.772 63.772v224.114c0 34.619-29.153 63.772-63.772 63.772h-32.797c-34.619 0-63.772-29.153-63.772-63.772v-224.114c0-34.619 29.153-63.772 63.772-63.772h32.797z" />
<glyph unicode="&#xe617;" glyph-name="sun" d="M256 64.493c-88.615 0-161.477 72.862-161.477 161.477s72.862 161.477 161.477 161.477c88.615 0 161.477-72.861 161.477-161.477s-72.861-161.477-161.477-161.477zM256 344.123c-64.984 0-118.154-53.169-118.154-118.154s53.169-118.154 118.154-118.154c64.985 0 118.154 53.169 118.154 118.154s-53.169 118.154-118.154 118.154zM256 413.046c-7.877 0-13.785 5.908-13.785 13.785v39.385c0 7.877 5.907 13.784 13.785 13.784s13.784-5.908 13.784-13.784v-37.416c0-9.846-5.908-15.754-13.785-15.754zM256-32c-7.877 0-13.785 5.908-13.785 13.784v37.416c0 7.877 5.907 13.784 13.785 13.784s13.784-5.908 13.784-13.784v-37.416c0-7.877-5.908-13.784-13.785-13.784zM498.216 210.216h-37.416c-7.877 0-13.784 5.908-13.784 13.785s5.908 13.785 13.784 13.785h37.416c7.877 0 13.784-5.907 13.784-13.785s-5.908-13.785-13.784-13.785zM53.169 210.216h-39.385c-7.877 0-13.784 5.908-13.784 13.785s5.907 13.785 13.784 13.785h37.416c7.877 0 13.785-5.907 13.785-13.785 1.969-7.877-3.938-13.785-11.816-13.785zM399.754 353.969c-3.938 0-7.877 1.969-9.846 3.939-5.908 5.907-5.908 15.754 0 19.692l27.569 27.569c5.908 5.908 15.754 5.908 19.692 0 5.908-5.907 5.908-15.754 0-19.692l-27.569-27.569c-1.969-3.939-5.908-3.939-9.846-3.939zM84.677 38.892c-3.939 0-7.877 1.969-9.846 3.938-5.907 5.908-5.907 15.754 0 19.692l27.569 27.569c5.907 5.908 15.754 5.908 19.692 0 5.907-5.908 5.907-15.754 0-19.692l-27.569-27.569c-1.969-1.969-5.907-3.938-9.846-3.938zM427.323 38.892c-3.938 0-7.877 1.969-9.846 3.938l-27.569 27.569c-5.908 5.908-5.908 15.754 0 19.692 5.908 5.908 15.754 5.908 19.692 0l27.569-27.569c5.908-5.908 5.908-15.754 0-19.692-3.938-1.969-5.908-3.938-9.846-3.938zM112.246 353.969c-3.939 0-7.877 1.969-9.846 3.939l-27.569 27.569c-5.907 5.908-5.907 15.754 0 19.692 5.907 5.908 15.754 5.908 19.692 0l27.569-27.569c5.907-5.908 5.907-15.754 0-19.692-1.969-3.939-5.907-3.939-9.846-3.939z" />
<glyph unicode="&#xe618;" glyph-name="clock" horiz-adv-x="490" d="M148.837 451.423l-2.381 3.572c-16.67 16.67-38.102 25.005-60.725 25.005-21.433 0-44.056-8.335-60.725-25.005-33.34-33.339-33.34-85.73-2.381-119.070 25.005 53.582 70.251 96.447 126.214 115.498zM464.372 446.661c-16.67 16.67-39.293 25.005-60.726 25.005s-44.056-8.335-60.726-25.005l-2.382-3.572c55.963-19.051 102.4-61.916 126.214-116.689 30.958 34.53 30.958 86.921-2.382 120.26zM401.265 364.502c-42.865 42.865-100.019 64.298-155.982 64.298s-113.117-21.433-155.982-64.298c-85.73-85.73-85.73-226.233 0-311.963 0 0 1.191-1.19 1.191-1.19l-55.963-55.963c0 0-2.382-20.242 26.196-26.195l58.344 58.344c38.102-26.195 82.158-39.293 126.214-39.293s88.112 13.098 126.214 39.293l57.154-59.535c28.577-2.381 26.195 26.195 26.195 26.195l-55.963 55.963c0 0 1.19 1.19 1.19 1.19 86.921 86.921 86.921 226.233 1.19 313.154zM363.163 91.832c-1.19-1.19-1.19-1.19-2.382-2.382l-9.526-9.526-11.907-8.335c-27.386-19.051-60.726-29.767-94.065-29.767s-66.679 10.716-94.065 29.767l-11.907 8.335-9.525 9.526c-1.19 1.19-1.19 1.19-2.382 2.382-30.958 30.958-47.628 72.632-47.628 116.688s16.67 85.73 48.819 116.688c30.958 30.958 72.632 48.819 116.689 48.819s85.73-16.67 116.688-48.819c30.958-30.958 48.818-72.632 48.818-116.688s-17.861-85.73-47.628-116.688zM267.907 327.591c0 13.097-10.716 22.623-22.624 22.623-13.097 0-22.624-10.716-22.624-22.623v-147.647h147.647c13.098 0 22.623 10.716 22.623 22.623 0 13.098-10.716 22.624-22.623 22.624h-102.4v102.4z" />
<glyph unicode="&#xe619;" glyph-name="arrow-right" horiz-adv-x="553" d="M214.416 456.609c-23.391-27.289-19.493-68.873 7.797-92.264l89.665-75.371h-246.904c-36.386 0-64.975-28.589-64.975-64.974s28.589-64.975 64.975-64.975h246.904l-87.066-76.67c-27.29-23.391-29.888-64.974-6.498-92.264s64.975-29.888 92.264-6.498l219.614 192.325c14.294 12.995 22.091 29.889 22.091 49.38 0 0 0 0 0 0 0 19.493-9.096 36.386-23.391 49.38l-223.512 189.726c-27.289 23.391-67.573 19.493-90.964-7.797z" />
<glyph unicode="&#xe61a;" glyph-name="marker" horiz-adv-x="384" d="M192 480c-105.412 0-192-86.588-192-192 0-39.529 13.177-79.059 35.764-112.941l5.647-7.529 137.412-193.882c3.764-3.764 7.53-5.647 13.177-5.647s9.412 1.882 13.177 5.647l135.53 192 7.529 9.412c24.471 33.882 35.764 71.529 35.764 112.941 0 105.412-86.588 192-192 192v0zM192 224c-35.764 0-64 28.236-64 64s28.236 64 64 64c35.764 0 64-28.236 64-64s-28.236-64-64-64v0z" />
<glyph unicode="&#xe61b;" glyph-name="play" d="M0 480l512-254.075-512-257.925z" />
<glyph unicode="&#xe61c;" glyph-name="twitter_A" d="M256 472.32c-137.216 0-248.32-111.104-248.32-248.32s111.104-248.32 248.32-248.32 248.32 111.104 248.32 248.32c0 137.216-111.104 248.32-248.32 248.32zM355.328 262.4c0-2.048 0-4.608 0-6.656 0-67.584-51.2-145.408-145.408-145.408-28.672 0-55.808 8.192-78.336 23.040 4.096-0.512 8.192-0.512 12.288-0.512 24.064 0 46.080 8.192 63.488 22.016-22.528 0.512-40.96 15.36-47.616 35.328 3.072-0.512 6.144-1.024 9.728-1.024 4.608 0 9.216 0.512 13.312 2.048-23.552 4.608-40.96 25.088-40.96 50.176v0.512c6.656-3.584 14.848-6.144 23.040-6.144-13.824 9.216-22.528 24.576-22.528 42.496 0 9.216 2.56 17.92 6.656 25.6 25.088-30.72 62.976-51.2 105.472-53.248-1.024 3.584-1.536 7.68-1.536 11.776 0 28.16 23.040 51.2 51.2 51.2 14.848 0 28.16-6.144 37.376-16.384 11.776 2.048 22.528 6.656 32.256 12.288-3.584-11.776-11.776-22.016-22.528-28.16 10.24 1.024 19.968 4.096 29.184 8.192-6.656-10.752-15.36-19.456-25.088-27.136z" />
<glyph unicode="&#xe61d;" glyph-name="money" horiz-adv-x="452" d="M427.255 15.669h-77.683v171.255c0 8.827-7.062 17.655-17.655 17.655h-211.862c-8.828 0-17.655-7.062-17.655-17.655v-171.255h-79.448c-12.358 0-22.951-10.593-22.951-22.952s10.593-24.717 22.951-24.717h404.303c12.358 0 22.952 10.593 22.952 22.952s-8.827 24.717-22.952 24.717zM137.71 107.476c30.014 5.296 52.965 30.014 54.731 61.793h63.559c3.531-31.779 26.483-56.496 58.262-61.793v-91.807h-37.076c-8.827 19.421-28.249 33.545-51.2 33.545s-42.373-14.124-51.2-33.545h-37.076v91.807zM310.731 393.49c-10.593 8.827-28.248 8.827-37.076-3.531l-30.014-37.076v100.635c-1.766 14.124-14.124 26.483-28.249 26.483s-26.483-12.358-26.483-26.483v-100.635l-31.78 35.31c-8.827 12.358-26.483 12.358-37.076 3.531-10.593-10.593-12.358-26.483-1.766-37.076l77.683-90.042c5.297-5.297 12.358-8.827 19.421-8.827v0c7.062 0 14.124 3.531 19.421 8.827l77.683 91.807c10.593 10.593 8.827 26.483-1.765 37.076z" />
<glyph unicode="&#xe61e;" glyph-name="lock" horiz-adv-x="419" d="M408.822 236.654c-5.841 5.84-15.574 9.734-25.308 9.734h-11.68v70.083c0 44.775-15.574 83.711-48.669 114.86-31.149 33.095-70.084 48.669-114.859 48.669-42.829 0-81.764-15.574-114.859-48.669-31.148-31.149-46.722-70.084-46.722-114.86v-70.084h-11.681c-9.734 0-17.521-3.893-25.308-9.734-5.84-5.84-9.734-13.628-9.734-23.361v-208.304c0-9.734 3.893-17.521 9.734-25.308 5.84-5.841 15.574-9.734 25.308-9.734h348.471c9.734 0 17.521 3.894 25.308 9.734 5.841 5.841 9.734 15.574 9.734 25.308v208.304c0 9.734-3.894 17.521-9.734 23.361v0zM301.749 248.334h-184.943v68.137c0 27.255 7.787 48.669 27.255 66.19 17.521 19.468 38.935 27.255 64.244 27.255s46.722-9.734 66.19-27.255c17.521-17.521 27.255-38.935 27.255-66.19v-68.137z" />
<glyph unicode="&#xe61f;" glyph-name="cart" horiz-adv-x="533" d="M527.181 332.334c4.14-5.52 6.9-12.421 5.52-20.701l-22.081-128.345c-1.38-6.901-4.14-12.421-9.661-16.56s-11.041-6.901-17.94-6.901h-325.692l-6.9-35.882h310.512c6.901 0 13.8-2.76 19.321-8.281s8.281-12.421 8.281-19.321c0-8.281-2.76-13.8-8.281-19.321s-12.421-8.281-19.321-8.281h-342.253c-8.281 0-15.18 2.76-20.701 9.661s-8.281 13.8-6.9 23.461l15.18 80.043-23.461 223.568-63.483 20.701c-6.901 2.76-12.421 6.901-16.561 13.8-2.76 6.901-4.14 13.8-1.38 20.701s6.901 12.421 13.8 16.56c6.901 2.76 13.8 4.14 20.701 2.76l81.423-27.601c5.52-1.38 9.66-4.14 12.421-8.28s5.52-9.661 5.52-15.181l4.14-44.161 368.475-41.401c8.28-1.38 15.181-4.14 19.321-11.041v0zM160.087 53.563c12.421 0 22.081-4.14 30.361-12.421s12.421-17.94 12.421-30.361c0-12.421-4.14-22.081-12.421-30.361s-17.94-12.421-30.361-12.421c-12.421 0-22.081 4.14-30.361 12.421s-12.421 17.94-12.421 30.361c0 12.421 4.14 22.081 12.421 30.361s17.94 12.421 30.361 12.421v0zM411.256 53.563c12.421 0 22.081-4.14 30.361-12.421s12.421-17.94 12.421-30.361c0-12.421-4.14-22.081-12.421-30.361s-17.94-12.421-30.361-12.421-22.081 4.14-30.361 12.421c-8.281 8.281-12.421 17.94-12.421 30.361s4.14 22.081 12.421 30.361c8.281 8.281 17.94 12.421 30.361 12.421v0z" />
<glyph unicode="&#xe620;" glyph-name="calendar" horiz-adv-x="445" d="M423.135 422.327h-78.86v30.014c0 14.712-12.358 27.66-27.66 27.66s-27.66-12.358-27.66-27.66v0-30.014h-133.002v30.014c0 14.712-12.358 27.66-27.66 27.66s-27.66-12.358-27.66-27.66v0-30.014h-79.448c-11.77 0-21.186-9.416-21.186-21.186v-411.954c0-11.77 9.416-21.186 21.186-21.186h401.949c11.77 0 21.186 9.416 21.186 21.186v411.954c0.589 11.77-9.416 21.186-21.186 21.186zM163.605 369.95c0-19.421-15.889-35.31-35.31-35.31-21.186 0-35.31 13.536-35.31 35.31v0c0 0 0 0 0 0 0 8.239 2.942 16.478 7.65 22.363v-9.416c0-15.301 12.358-27.66 27.66-27.66s27.66 12.359 27.66 27.66v9.416c4.708-5.885 7.65-13.536 7.65-22.363 0 0.589 0 0.589 0 0v0zM351.926 369.95c0-19.421-15.889-35.31-35.31-35.31-21.186 0-35.31 13.536-35.31 35.31v0c0 0 0 0 0 0 0 8.827 2.942 16.478 8.239 22.952v-9.416c0-15.301 12.358-27.66 27.66-27.66s27.66 12.358 27.66 27.66v8.827c4.12-5.885 7.062-13.536 7.062-22.363 0 0.589 0 0.589 0 0v0z" />
<glyph unicode="&#xe621;" glyph-name="card" horiz-adv-x="976" d="M876.99 184.636v46.459c0 38.801-53.711 78.048-156.255 78.813v122.408c0 23.251-19.059 42.307-42.308 42.307h-632.194c-23.288 0-42.307-19.059-42.307-42.307v-400.51c0-23.252 19.017-42.308 42.307-42.308h632.194c7.496 0 14.503 2.017 20.629 5.479 26.553-13.014 64.146-21.559 112.538-21.559 104.6 0 159.356 39.648 159.356 78.853v59.589c0 29.978-32.153 60.198-93.962 72.769zM932.391 111.865c0-14.221-45.894-40.334-120.798-40.334-70.109 0-114.793 22.889-120.193 37.516-0.202 0.928-0.484 1.896-0.564 2.818v0c0 14.263 45.853 40.371 120.76 40.371s120.798-26.151 120.798-40.371zM596.874 178.106c19.298-11.119 45.773-19.539 79.055-23.45-6.809-5.599-12.047-11.564-15.918-17.765-40.092 8.502-63.137 24.5-63.137 34.57v6.646zM838.428 231.133c0-14.263-45.853-40.371-120.76-40.371s-120.798 26.111-120.798 40.371c0 14.221 45.894 40.334 120.798 40.334s120.76-26.151 120.76-40.334zM67.346 411.163h589.925v-52.502h-589.925v52.502zM67.346 276.785h518.368c-18.053-13.497-27.438-29.575-27.438-45.651v-59.636c0-29.978 32.072-60.198 93.962-72.769v-45.773h-584.893v223.827zM811.591 11.899c-39.124 0-70.192 7.171-91.063 15.954 0.119 1.289 0.202 2.577 0.202 3.908v14.061c24.135-7.938 54.398-12.812 90.859-12.812 53.63 0 94.044 10.435 120.798 25.909v-6.646c0-14.221-45.894-40.372-120.798-40.372z" />
<glyph unicode="&#xe622;" glyph-name="chart" horiz-adv-x="752" d="M716.015 478.514h-683.957c-18.253 0-33.069-14.784-33.069-33.069v-440.98c0-18.252 14.816-33.069 33.069-33.069h683.957c18.285 0 33.1 14.816 33.1 33.068v440.98c0 18.286-14.816 33.068-33.1 33.068zM682.98 37.567h-617.851v374.811h617.851v-374.811zM130.451 170.963h487.204c7.846 0 14.189 6.346 14.189 14.19 0 7.814-6.346 14.158-14.189 14.158h-487.204c-7.814 0-14.189-6.346-14.189-14.158s6.376-14.19 14.189-14.19zM130.451 113.017h487.204c7.846 0 14.189 6.346 14.189 14.158s-6.346 14.158-14.189 14.158h-487.204c-7.814 0-14.189-6.346-14.189-14.158s6.376-14.158 14.189-14.158zM157.081 299.297c6.409 0 12.251 2.25 16.942 5.876l58.353-26.973c3.063-12.129 13.94-21.128 27.003-21.128 14.003 0 25.473 10.315 27.536 23.721 21.534 10.938 45.226 22.847 61.886 31.13 4.813-3.908 10.877-6.375 17.567-6.375 5.25 0 10.096 1.531 14.284 4.031 18.221-12.688 45.82-32.349 69.669-49.414-0.125-1.030-0.313-2.063-0.313-3.125 0-15.44 12.501-27.974 27.974-27.974 15.408 0 27.974 12.532 27.974 27.974 0 2.47-0.438 4.813-1.031 7.096l71.637 53.572c4.25-2.595 9.157-4.156 14.501-4.156 15.408 0 27.974 12.501 27.974 27.974s-12.533 27.974-27.974 27.974c-15.44 0-27.974-12.501-27.974-27.974 0-1.218 0.188-2.375 0.345-3.563l-74.076-55.385c-3.469 1.564-7.281 2.47-11.346 2.47-5.501 0-10.565-1.625-14.877-4.375-33.944 24.347-55.385 39.569-69.166 49.071 0.156 1.252 0.375 2.469 0.375 3.781 0 15.44-12.501 27.974-27.974 27.974-15.377 0-27.849-12.44-27.943-27.818-12.47-6.125-31.007-15.44-58.729-29.503-5.096 5.406-12.285 8.845-20.286 8.845-8.876 0-16.691-4.22-21.817-10.687l-52.6 24.315c0 0.219 0.061 0.406 0.061 0.624 0 15.44-12.532 27.974-27.974 27.974s-27.974-12.501-27.974-27.974c0.030-15.44 12.532-27.974 27.974-27.974z" />
<glyph unicode="&#xe623;" glyph-name="bill" horiz-adv-x="1088" d="M681.771 127.99c-9.439 3.897-13.428 6.691-13.428 12.322 0 4.344 3.1 9.306 11.477 9.306 6.914 0 11.348-2.392 13.651-3.68l2.701 7.135c-3.1 1.861-7.577 3.59-14.049 3.767v10.503h-6.691v-10.947c-9.971-1.596-16.311-8.375-16.311-17.421 0-9.44 6.783-14.358 17.819-18.704 8.023-3.281 12.187-6.914 12.187-12.896 0-6.159-5.141-10.548-12.853-10.548-6.071 0-11.698 1.995-15.601 4.609l-2.614-7.266c3.812-2.701 10.284-4.609 16.577-4.7v-10.947h6.783v11.257c11.17 1.861 17.106 9.839 17.106 18.395 0 9.62-5.628 15.245-16.75 19.809zM1036.37 474.834h-673.785c-17.99 0-32.575-14.582-32.575-32.575v-434.37c0-17.99 14.582-32.618 32.575-32.618h673.785c17.99 0 32.575 14.627 32.575 32.618v434.37c0 17.99-14.582 32.575-32.575 32.575zM1003.753 40.414h-608.593v369.269h608.593v-369.269zM459.469 258.863h479.979c7.71 0 13.917 6.252 13.917 13.959s-6.253 13.959-13.917 13.959h-479.979c-7.709 0-13.917-6.294-13.917-13.959s6.203-13.959 13.917-13.959zM832.637 336.024h106.809c7.71 0 13.917 6.252 13.917 13.959s-6.253 13.959-13.917 13.959h-106.809c-7.71 0-13.959-6.252-13.959-13.959 0-7.667 6.253-13.959 13.959-13.959zM939.446 101.797h-192.967c-7.71 0-13.959-6.252-13.959-13.917s6.294-13.917 13.959-13.917h192.967c7.71 0 13.917 6.252 13.917 13.917s-6.203 13.917-13.917 13.917zM459.469 201.737h479.979c7.71 0 13.917 6.252 13.917 13.959s-6.253 13.959-13.917 13.959h-479.979c-7.709 0-13.917-6.252-13.917-13.959s6.203-13.959 13.917-13.959zM144.093 400.773c-76.585 0-138.809-62.269-138.809-138.809 0-29.161 9.087-57.126 26.194-80.969l3.633-5.051 99.718-140.671c2.172-2.925 5.627-4.652 9.264-4.652s7.047 1.727 9.216 4.652l98.477 139.029 4.828 6.691c17.2 23.846 26.282 51.807 26.282 80.969 0 76.539-62.313 138.808-138.809 138.808zM144.093 215.697c-25.53 0-46.27 20.743-46.27 46.27 0 25.482 20.743 46.227 46.27 46.227 25.482 0 46.27-20.743 46.27-46.227 0-25.53-20.785-46.27-46.27-46.27z" />
<glyph unicode="&#xe624;" glyph-name="close" d="M513.684 458.619l-23.065 23.064-234.619-234.619-234.619 234.619-23.085-23.064 234.619-234.619-234.598-234.598 23.085-23.065 234.598 234.598 234.619-234.619 23.064 23.065-234.619 234.619z" />
<glyph unicode="&#xe625;" glyph-name="alert" d="M480.133 66.58l-197.447 341.986c-14.679 25.426-38.692 25.426-53.371 0l-197.447-341.986c-14.684-25.426-2.672-46.218 26.68-46.218h394.9c29.358 0 41.365 20.793 26.685 46.218zM281.666 85.007h-51.328v42.854h51.328v-42.855zM281.666 163.123h-51.328v142.326h51.328v-142.326z" />
<glyph unicode="&#xe626;" glyph-name="micro" horiz-adv-x="396" d="M305.27 192.992c0-45.846-45.903-91.92-91.791-91.92h-30.65c-45.903 0-91.805 46.075-91.805 91.92v91.819h-30.635v-91.819c0-61.299 61.337-122.383 122.439-122.383v-61.329h-91.805v-30.665h214.245v30.665h-91.791v61.329c61.257 0 122.448 61.084 122.448 122.383v91.819h-30.658v-91.819zM213.306 131.692c33.961 0 61.43 27.671 61.43 60.995v214.849c0 33.625-27.311 60.989-61.43 60.989h-30.331c-33.961 0-61.249-27.501-61.249-60.989v-214.849c0-33.599 27.288-60.995 61.249-60.995h30.331z" />
<glyph unicode="&#xe627;" glyph-name="google-plus_A" d="M97.679 480c-53.724 0-97.679-43.956-97.679-97.679v-316.643c0-53.724 43.956-97.679 97.679-97.679h316.643c53.724 0 97.679 43.956 97.679 97.679v316.642c0 53.724-43.956 97.679-97.679 97.679h-316.642zM288.777 370.225h-76.534c-10.166 0-21.050-1.174-32.654-3.559-11.718-2.726-23.019-8.632-33.885-17.586-15.863-15.39-23.776-32.465-23.776-51.32 0-15.655 5.641-29.322 16.772-41.041 10.677-12.626 26.218-19.082 46.587-19.327 3.843 0 7.931 0.246 12.286 0.757-0.738-2.006-1.495-4.184-2.347-6.588-0.984-2.291-1.439-5.092-1.439-8.499 0-5.622 1.25-10.487 3.786-14.481 2.158-4.146 4.581-8.064 7.382-11.68-8.916-0.265-20.142-1.382-33.638-3.389-13.686-2.366-26.672-7.118-39.071-14.216-11.036-6.606-18.665-14.292-22.868-23-4.335-8.745-6.512-16.659-6.512-23.776 0-14.576 6.701-27.108 20.009-37.576 13.194-11.226 33.241-16.962 60.046-17.245 31.973 0.53 56.487 8.235 73.467 23.094 16.375 14.368 24.59 30.856 24.59 49.464-0.246 13.099-3.218 23.738-8.954 31.878-6.077 8.007-13.175 15.296-21.221 21.921l-13.024 10.676c-1.855 1.855-3.805 4.032-5.792 6.531-2.347 2.632-3.502 5.925-3.502 9.919 0 4.145 1.155 7.78 3.407 10.904 1.95 2.991 4.070 5.679 6.341 8.064 4.013 3.483 7.743 6.928 11.301 10.279 3.18 3.369 6.209 7.061 9.067 11.074 5.849 8.216 8.859 19.214 9.067 32.957 0 7.496-0.852 14.046-2.536 19.687-2.045 5.622-4.392 10.506-7.023 14.614-2.764 4.354-5.584 8.045-8.462 11.036-3.029 2.878-5.736 5.055-8.121 6.55h23.605l23.644 13.876zM246.828 160.745c6.304-7.25 9.522-15.75 9.522-25.517 0-11.983-4.657-21.788-13.894-29.436-9.503-7.704-23.284-11.736-41.324-11.983-20.103 0.246-35.929 4.771-47.514 13.497-12.191 8.764-18.286 19.895-18.286 33.355 0 6.89 1.401 12.778 4.221 17.643 2.442 4.619 5.395 8.481 8.954 11.604 3.691 2.991 7.25 5.32 10.771 6.928 3.521 1.495 6.266 2.65 8.234 3.389 8.292 2.499 16.375 4.316 24.306 5.433 8.046 0.738 13.024 1.003 14.993 0.738 3.275 0 6.133-0.113 8.556-0.378 14.273-9.995 24.78-18.419 31.462-25.272zM234.392 273.757c-0.928-5.13-2.991-10.147-6.247-15.012-6.701-6.871-15.087-10.506-25.177-10.904-7.97 0-15.069 2.461-21.22 7.345-6.209 4.884-11.282 10.809-15.201 17.813-8.102 15.030-12.172 29.493-12.172 43.387-0.246 10.525 2.536 20.047 8.329 28.546 6.871 8.14 15.484 12.343 25.839 12.589 7.856-0.265 14.803-2.594 20.823-6.947 5.906-4.638 10.677-10.638 14.311-18.022 7.685-15.39 11.585-30.666 11.585-45.829 0-3.521-0.34-7.837-0.871-12.967zM408.131 250.474v0.227h-40.226v41.021h-23.568v-41.021h-40.491v-22.868h0.246v-0.889h40.245v-40.245h23.549v40.245h41.23v23.549h-0.985z" />
<glyph unicode="&#xe628;" glyph-name="lnkdn" d="M474.067 480h-436.291c-20.858 0-37.776-16.54-37.776-36.887v-438.161c0-20.391 16.919-36.953 37.776-36.953h436.291c20.88 0 37.933 16.562 37.933 36.953v438.161c0 20.346-17.052 36.887-37.933 36.887zM151.819 43.709h-75.954v244.335h75.954v-244.335zM113.865 321.436c-24.353 0-44.055 19.745-44.055 44.054 0 24.286 19.701 44.010 44.054 44.010 24.264 0 44.010-19.723 44.010-44.010 0-24.309-19.745-44.054-44.010-44.054zM436.269 43.709h-75.865v118.806c0 28.361-0.534 64.802-39.447 64.802-39.513 0-45.546-30.876-45.546-62.731v-120.877h-75.909v244.336h72.838v-33.369h1.024c10.151 19.189 34.928 39.447 71.88 39.447 76.822 0 91.047-50.577 91.047-116.402v-134.011z" />
<glyph unicode="&#xe629;" glyph-name="skype_A" horiz-adv-x="513" d="M213.304 461.865c-0.814 0.474-1.685 0.871-2.518 1.306-0.871-0.171-1.742-0.359-2.594-0.511l5.111-0.795zM18.494 269.593c-0.171-0.871-0.284-1.76-0.416-2.631 0.454-0.814 0.852-1.628 1.306-2.442l-0.889 5.073zM494.641 178.539c0.171 0.909 0.284 1.817 0.435 2.726-0.435 0.814-0.852 1.628-1.306 2.442l0.871-5.168zM296.747-12.067c0.833-0.474 1.666-0.889 2.48-1.325 0.909 0.151 1.817 0.265 2.707 0.435l-5.187 0.889zM495.077 181.265c-0.171-0.909-0.284-1.817-0.435-2.726l-0.871 5.149c0.454-0.795 0.871-1.609 1.306-2.423 2.65 14.425 4.051 29.171 4.051 43.917 0 32.73-6.418 64.457-19.082 94.328-12.21 28.85-29.644 54.784-51.944 77.026-22.224 22.262-48.177 39.734-77.007 51.925-29.872 12.645-61.617 19.043-94.31 19.043-15.409 0-30.875-1.439-45.906-4.335-0.019 0-0.057 0-0.095-0.019 0.833-0.435 1.703-0.833 2.518-1.306l-5.111 0.795c0.852 0.171 1.722 0.34 2.594 0.511-20.633 10.98-43.823 16.848-67.296 16.848-38.334 0-74.357-14.936-101.446-42.043-27.108-27.089-42.044-63.132-42.044-101.446 0-24.382 6.285-48.366 18.059-69.549 0.151 0.871 0.265 1.761 0.416 2.632l0.89-5.073c-0.454 0.795-0.852 1.628-1.306 2.442-2.385-13.724-3.634-27.751-3.634-41.778 0-32.73 6.398-64.457 19.044-94.328 12.21-28.868 29.682-54.784 51.925-77.026 22.281-22.262 48.158-39.753 77.045-51.906 29.852-12.683 61.617-19.082 94.328-19.082 14.236 0 28.509 1.287 42.441 3.767-0.814 0.435-1.647 0.852-2.48 1.325l5.168-0.889c-0.889-0.19-1.798-0.303-2.707-0.435 21.447-12.172 45.773-18.589 70.59-18.589 38.296 0 74.319 14.898 101.408 42.005 27.108 27.089 42.043 63.113 42.043 101.446 0.019 24.457-6.303 48.517-18.154 69.795zM257.732 76.753c-86.113 0-124.597 42.327-124.597 74.054 0 16.28 12.001 27.675 28.547 27.675 36.856 0 27.316-52.909 96.051-52.909 35.191 0 54.651 19.12 54.651 38.674 0 11.755-5.83 24.798-28.982 30.496l-76.572 19.12c-61.693 15.466-72.88 48.801-72.88 80.149 0 65.082 61.257 89.501 118.786 89.501 53.004 0 115.492-29.285 115.492-68.319 0-16.734-14.481-26.464-31.045-26.464-31.442 0-25.65 43.539-88.99 43.539-31.424 0-48.839-14.236-48.839-34.604 0-20.331 24.817-26.824 46.359-31.726l56.696-12.589c62.091-13.819 77.822-50.089 77.822-84.219 0.019-52.891-40.567-92.378-122.496-92.378z" />
<glyph unicode="&#xe62a;" glyph-name="facebook-square" horiz-adv-x="525" d="M495.637 480h-466.704c-15.961 0-28.932-12.668-28.932-28.253v-455.469c0-15.635 12.97-28.279 28.932-28.279h251.287v198.274h-68.37v77.269h68.395v56.984c0 66.108 41.374 102.103 101.776 102.103 28.957 0 53.867-2.087 61.106-3.016v-69.125l-41.902-0.025c-32.904 0-39.263-15.233-39.263-37.629v-49.317h78.45l-10.206-77.269h-68.245v-198.274h133.7c15.986 0 28.932 12.644 28.932 28.279v455.493c-0.025 15.584-12.971 28.253-28.957 28.253z" />
<glyph unicode="&#xe62b;" glyph-name="email" horiz-adv-x="690" d="M598.582 480h-507.087c-27.25 0-51.623-12.024-68.424-30.969-6.704-3.339-12.621-8.468-16.828-15.308-6.080-9.798-7.572-21.144-5.103-31.538-0.651-4.478-1.14-9.011-1.14-13.68v-329.011c0-50.429 41.038-91.494 91.495-91.494h507.087c50.484 0 91.521 41.065 91.521 91.495v329.011c0 50.429-41.038 91.495-91.522 91.495zM525.218 396.838l-181.225-123.277-199.166 123.277h380.39zM598.582 51.162h-507.087c-4.505 0-8.332 3.8-8.332 8.332v277.686l239.986-148.573c6.704-4.125 14.303-6.216 21.904-6.216 8.169 0 16.339 2.416 23.369 7.219l238.494 162.199v-292.316c0-4.533-3.8-8.332-8.332-8.332z" />
<glyph unicode="&#xe62c;" glyph-name="plus" d="M464.695 271.304h-164.174v161.392c0 25.043-19.478 47.304-47.304 47.304s-44.522-19.478-44.522-47.304v-164.174h-161.392c-27.826 2.782-47.304-19.478-47.304-44.522s19.479-47.305 47.304-47.305h164.174v-164.174c0-25.043 19.478-47.304 47.305-47.304s47.305 19.478 47.305 47.305v164.174h164.174c25.043 0 47.304 19.478 47.304 47.304s-27.826 47.304-52.87 47.304z" />
<glyph unicode="&#xe62d;" glyph-name="smile" d="M182.921 265.276c-29.79 0-29.79-46.179 0-46.179 29.762 0 29.762 46.179 0 46.179zM329.16 268.14c-29.774 0-29.774-46.175 0-46.175 29.774 0.053 29.774 46.175 0 46.175zM306.837 188.577c-9.556 0-17.347-7.729-17.347-17.27 0-18.453-14.969-33.499-33.423-33.499s-33.461 15.046-33.461 33.499c0 9.541-7.738 17.27-17.309 17.27-9.556 0-17.362-7.729-17.362-17.27 0-37.58 30.582-68.135 68.135-68.135 37.515 0 68.058 30.551 68.058 68.135-0.004 9.541-7.733 17.27-17.293 17.27zM256.036 480c-141.183 0-256.036-114.854-256.036-256.036s114.854-256.036 256.036-256.036 256.036 114.854 256.036 256.036-114.854 256.036-256.036 256.036zM256.036 2.384c-122.181 0-221.58 99.399-221.58 221.58s99.398 221.58 221.58 221.58 221.58-99.399 221.58-221.58-99.399-221.58-221.58-221.58z" />
<glyph unicode="&#xe62e;" glyph-name="check" horiz-adv-x="384" d="M320 384l-192-192-64 64-64-64 128-128 256 256-64 64z" />
<glyph unicode="&#xe62f;" glyph-name="star" d="M512 281.475l-176.89 25.704-79.11 160.291-79.108-160.291-176.892-25.704 128-124.769-30.216-176.176 158.216 83.179 158.216-83.179-30.217 176.176 128.001 124.769z" />
<glyph unicode="&#xe630;" glyph-name="close_A" d="M256 480c-141.385 0-256-114.615-256-256s114.615-256 256-256 256 114.615 256 256-114.615 256-256 256zM384 306.745l-82.744-82.745 82.744-82.744v-45.256h-45.256l-82.744 82.744-82.745-82.744h-45.255v45.256l82.745 82.744-82.745 82.745v45.255h45.255l82.745-82.745 82.744 82.745h45.256v-45.255z" />
<glyph unicode="&#xe631;" glyph-name="exit" d="M384 160v64h-160v64h160v64l96-96zM352 192v-128h-160v-96l-192 96v416h352v-160h-32v128h-256l128-64v-288h128v96z" />
<glyph unicode="&#xe632;" glyph-name="reply" horiz-adv-x="724" d="M9.395 275.669l216.073 197.285c14.091 11.743 23.486 7.046 23.486-9.394v-84.55c446.239-30.532 474.422-408.661 474.422-408.661s-197.284 256-474.422 166.752v-89.248c0-16.44-11.743-21.137-23.486-9.394l-216.073 197.285c-11.743 9.394-11.743 28.184 0 39.927z" />
<glyph unicode="&#xe633;" glyph-name="crown_A" horiz-adv-x="673" d="M606.365 354.803c-36.438 0-66.336-29.898-66.336-66.336 0-19.62 8.409-37.373 22.423-49.518l-84.087-29.898-119.591 142.014c26.161 9.343 43.913 33.635 43.913 62.599 0.935 36.438-28.964 66.336-65.401 66.336s-66.336-29.898-66.336-66.336c0-28.964 18.686-52.321 43.913-62.599l-120.525-142.014-84.088 29.898c14.014 12.146 22.423 29.898 22.423 49.518 0 36.438-29.898 66.336-66.336 66.336s-66.336-29.898-66.336-66.336c0-30.832 21.489-56.993 50.453-64.467v-180.321c0-0.935 0-2.803 0.934-3.737 0-1.868-0.934-3.737-0.934-5.606 0-64.467 256-66.336 285.898-66.336 28.964 0 285.898 1.868 285.898 66.336 0 1.868 0 3.737-0.934 5.606 0 0.935 0.934 1.868 0.934 3.737v180.321c28.963 7.475 50.452 33.635 50.452 64.467 0 36.438-29.898 66.336-66.336 66.336zM302.716 413.664c0 18.686 14.949 34.57 34.57 34.57 18.686 0 34.57-14.949 34.57-34.57s-14.949-34.569-34.57-34.569c-19.62 0-34.57 15.883-34.57 34.569zM194.336 175.416c6.54-1.868 13.081 0 17.752 4.671l124.263 147.62 124.263-147.62c4.671-5.606 11.212-7.474 17.752-4.671l111.183 40.175v-146.686c-70.073 30.832-230.774 32.7-253.197 32.7s-183.124-0.935-253.197-32.7v145.752l111.183-39.241zM336.351 0.7c-124.263 0-203.679 14.949-237.314 27.095-6.54 2.803-11.212 4.671-14.014 6.54 10.278 7.474 43.912 17.752 99.971 25.226 39.241 5.606 89.694 9.343 151.357 9.343s112.117-3.737 151.357-8.409c56.058-7.474 89.693-17.752 99.971-25.226-2.803-1.868-7.475-4.671-14.014-6.54-33.635-13.080-113.051-28.029-237.314-28.029zM32.7 288.467c0 18.686 14.949 33.635 34.569 33.635s34.569-14.949 34.569-33.635c0-18.686-14.949-34.569-34.57-34.569s-34.569 15.883-34.569 34.569zM606.365 254.832c-18.686 0-34.569 14.949-34.569 34.57 0 18.686 14.949 33.635 34.569 33.635 18.686 0 34.569-14.949 34.569-33.635-0.934-19.62-15.883-34.57-34.569-34.57z" />
<glyph unicode="&#xe634;" glyph-name="tree" horiz-adv-x="288" d="M284.524 41.449l-70.596 95.555h41.359c4.278 0 7.844 2.139 9.984 6.418 2.139 3.565 1.426 7.844-0.713 11.409l-57.761 79.153h20.679c4.279 0 7.844 2.139 9.983 6.418 2.139 3.565 1.426 8.557-1.426 11.41l-84.145 101.972c-2.139 2.853-4.992 4.278-8.557 4.278s-6.418-1.426-8.557-4.278l-82.719-101.972c-2.852-3.566-3.566-7.844-1.426-11.41s5.705-6.418 9.983-6.418h20.679l-58.474-79.153c-2.139-3.565-2.852-7.844-0.713-11.409s5.704-6.418 9.983-6.418h41.359l-71.309-95.555c-2.139-3.565-2.853-7.844-0.713-11.409 1.426-4.279 5.705-6.418 9.983-6.418h121.225v-44.212c0-6.418 4.992-11.409 11.41-11.409s11.41 4.991 11.41 11.409v44.212h121.226c4.279 0 7.844 2.139 9.983 6.418 0.713 3.565 0.713 7.844-2.139 11.409zM143.332 329.538l59.899-73.449h-119.799l59.9 73.449zM53.482 159.108l54.908 74.875h69.883l54.908-74.875h-179.699zM32.802 45.727l67.744 91.276h85.571l67.744-91.276h-221.059zM108.39 405.125l-5.704-31.376c-0.713-2.853 0.713-6.418 3.566-7.844 2.853-2.139 5.704-2.139 8.557-0.713l28.523 14.975 28.524-14.975c1.426-0.713 2.852-0.713 3.565-0.713v0c4.279 0 8.557 3.565 8.557 8.557 0 0.713 0 1.426 0 2.139l-4.992 30.663 22.819 22.106c2.139 2.139 2.852 5.704 2.139 8.557s-3.566 4.992-6.418 5.704l-32.089 4.279-14.262 28.524c-1.426 2.853-4.279 4.991-7.844 4.991s-6.418-2.139-7.844-4.991l-14.262-28.524-32.089-4.279c-2.853-0.713-5.704-2.852-6.418-5.704s0-6.418 2.139-8.557l23.532-22.819zM128.357 430.796c2.852 0.713 4.992 2.139 6.418 4.279l8.557 17.828 8.557-17.828c1.426-2.139 3.566-4.279 6.418-4.279l19.254-2.852-14.262-13.549c-2.139-2.139-2.852-4.991-2.139-7.131l3.565-19.254-17.114 9.27c-1.426 0.713-2.852 0.713-3.566 0.713-1.426 0-2.852 0-3.565-0.713l-17.828-9.983 3.566 19.253c0.713 2.853-0.713 5.704-2.139 7.131l-14.262 13.548 18.541 3.565z" />
<glyph unicode="&#xe635;" glyph-name="user" horiz-adv-x="375" d="M153.11 294.43c25.722 0 47.77 9.186 66.144 27.56s26.947 40.421 26.947 66.144c0 25.722-9.186 47.158-26.947 65.531-18.986 17.148-40.421 26.335-66.144 26.335s-47.158-9.186-65.531-26.947c-18.373-18.373-26.948-39.808-26.948-65.531s9.186-47.771 26.948-66.144c17.761-18.373 39.809-26.947 65.531-26.947zM108.402 432.23c12.249 12.249 27.56 18.985 44.708 18.985 17.761 0 32.459-6.124 44.708-18.985 12.249-12.249 18.986-27.56 18.986-44.708 0-17.761-6.125-32.459-18.986-45.32-12.249-12.249-27.56-18.373-44.708-18.373s-32.459 6.125-44.708 18.373c-12.249 12.249-18.986 27.56-18.986 45.32 0 17.149 6.124 31.847 18.986 44.708zM305.608 160.918c-1.837 62.469-58.182 116.976-120.65 116.976h-62.469c-33.072 0-61.244-13.474-84.516-36.134-23.885-23.272-37.971-51.445-37.971-83.904v-82.067c0-17.761 14.086-31.847 31.847-31.847h148.21c10.411-43.483 49.607-75.942 96.153-75.942 54.507 0 98.603 44.096 98.603 98.603 0 44.096-29.397 81.454-69.205 94.316zM177.607 72.728h-145.761c-1.837 0-2.45 0.613-2.45 2.45v76.555c0 25.723 8.574 47.771 26.335 66.144 17.761 18.986 39.196 31.234 64.306 31.234h66.143c24.498 0 45.321-11.024 62.469-28.785 14.086-14.699 23.885-34.296 26.947-54.507-52.67-1.225-94.316-41.646-97.99-93.091zM305.608 50.68l30.010 7.962c1.225 0 1.837-0.613 2.45-1.225 0-1.225-0.613-1.837-1.225-2.45l-26.335-7.349 25.11-14.699c1.225-0.613 1.225-1.837 0.613-2.45s-1.225-1.225-1.837-1.225c-0.613 0-0.613 0-1.225 0l-25.11 14.699 7.349-26.335c0-1.225-0.613-1.837-1.225-2.45 0 0-0.613 0-0.613 0-0.613 0-1.837 0.613-1.837 1.225l-7.962 30.010-23.885 14.086v-27.56l22.048-22.048c0.613-0.613 0.613-1.837 0-3.062-0.613-0.613-0.613-0.613-1.225-0.613s-1.225 0-1.225 0.613l-19.598 19.598v-28.784c0-1.225-0.613-1.837-1.837-1.837s-1.837 0.613-1.837 1.837v28.784l-20.21-18.986c-0.613-0.613-1.838-0.613-3.062 0-0.613 0.613-0.613 1.837 0 3.062l22.66 21.435v27.56l-23.885-14.086-7.962-30.010c0-0.613-1.225-1.225-1.838-1.225 0 0-0.613 0-0.613 0-1.225 0-1.838 1.225-1.225 2.45l7.35 26.335-25.11-14.699c-0.613 0-0.613 0-1.225 0s-1.225 0.613-1.838 1.225c-0.613 1.225 0 1.837 0.613 2.45l25.11 14.699-26.335 7.349c-1.225 0-1.838 1.225-1.225 2.45 0 1.225 1.225 1.837 2.45 1.225l30.010-7.962 23.885 14.086-23.885 14.086-30.010-7.962c0 0-0.613 0-0.613 0-0.613 0-1.838 0.613-1.838 1.225 0 1.225 0.613 1.837 1.225 2.45l26.335 7.349-25.11 14.699c-1.225 0.613-1.225 1.837-0.613 2.45 0.613 1.225 1.838 1.225 2.45 0.613l25.11-14.699-7.35 26.335c0 1.225 0.613 1.837 1.225 2.45 1.225 0 1.838-0.613 2.45-1.225l7.962-30.010 23.885-14.086v27.56l-22.048 22.048c-0.613 0.613-0.613 1.837 0 3.062 0.613 0.613 1.838 0.613 3.062 0l19.598-19.598v28.784c0 1.225 0.613 1.837 1.837 1.837s1.837-0.613 1.837-1.837v-28.784l19.598 19.598c0.613 0.613 1.837 0.613 3.062 0 0.613-0.613 0.613-1.837 0-3.062l-22.048-22.048v-27.56l23.885 14.086 7.962 30.010c0 1.225 1.225 1.837 2.45 1.225 1.225 0 1.837-1.225 1.225-2.45l-7.349-26.335 25.11 14.699c1.225 0.613 1.837 0 2.45-0.613 0.613-1.225 0-1.837-0.613-2.45l-25.11-14.699 26.335-7.349c1.225 0 1.837-1.225 1.225-2.45 0-0.613-1.225-1.225-1.837-1.225 0 0-0.613 0-0.613 0l-30.010 7.962-23.885-14.086 24.498-14.086z" />
<glyph unicode="&#xe636;" glyph-name="check_A" d="M467.437 245.808v-226.607c0-3.793-2.844-7.585-7.585-7.585h-408.652c-3.792 0-7.585 2.844-7.585 7.585v409.6c0.948 3.793 3.792 6.637 7.585 6.637h285.392v44.563h-285.392c-28.445 0-51.2-22.755-51.2-51.2v-409.6c0-28.445 22.756-51.2 51.2-51.2h409.6c28.445 0 51.2 22.755 51.2 51.2v226.607h-44.563zM226.607 182.281c-1.897 0-3.792 0.948-4.74 1.897l-85.333 85.334-30.34-31.289 121.363-121.363 281.6 282.548-30.341 31.289-246.518-246.518c-1.897-1.897-3.792-1.897-5.689-1.897z" />
<glyph unicode="&#xe637;" glyph-name="poster" horiz-adv-x="347" d="M329.563 386.68h-72.302v76.505c0 9.248-7.566 16.815-16.815 16.815s-16.815-7.567-16.815-16.815v-75.665h-105.091v75.665c0 9.248-7.567 16.815-16.814 16.815s-16.814-7.567-16.814-16.815v-75.665h-68.099c-9.248 0-16.814-7.566-16.814-16.814v-385.051c0-9.248 7.566-16.815 16.814-16.815h311.908c9.248 0 16.815 7.567 16.815 16.815v384.21c0.841 9.248-6.726 16.815-15.974 16.815zM312.749 2.469h-278.279v350.582h278.279v-350.582zM114.338 188.269c1.681 0 2.522-0.841 3.363-1.682l65.576-65.577-73.143-97.524h35.31l83.231 111.816c0.84 0.841 2.522 2.522 5.044 2.522 1.681 0 3.363-0.841 4.203-1.682l58.010-54.647v38.673l-38.673 36.151c-7.566 6.726-16.815 10.089-26.903 9.248s-18.496-5.885-24.381-14.293l-5.885-7.567-63.054 63.054c-7.566 7.567-16.814 10.93-26.063 10.089-10.088-0.841-18.496-5.885-24.381-14.293l-36.151-53.806v-49.603l59.691 86.594c0.841 0.841 1.681 2.522 4.204 2.522zM235.403 188.269c31.948 0 58.010 26.063 58.010 58.010s-26.063 58.010-58.010 58.010c-31.947 0-58.010-26.063-58.010-58.010s26.063-58.010 58.010-58.010zM235.403 274.863c15.974 0 28.585-12.611 28.585-28.584s-12.611-28.584-28.584-28.584c-15.974 0-28.584 12.611-28.584 28.584s12.611 28.584 28.584 28.584z" />
<glyph unicode="&#xe638;" glyph-name="workshop" horiz-adv-x="882" d="M546.712 480h-523.158c-13.637 0-23.555-9.918-23.555-23.555v-463.651c0-12.397 9.918-23.555 23.555-23.555h523.158c12.397 0 23.554 9.918 23.554 23.555v463.651c0 13.637-11.158 23.555-23.554 23.555zM523.158 432.891v-416.543h-477.288v416.543h477.288zM220.668 139.080c2.48-1.24 6.198-2.479 9.917-2.479s6.198 1.24 8.678 2.479l138.847 76.862c6.199 3.719 9.918 9.917 9.918 17.356s-4.959 13.637-11.158 16.116l-138.847 65.704c-6.198 2.479-12.397 2.479-18.595-1.239-4.959-3.719-8.678-9.918-8.678-16.116v-142.566c1.239-6.199 4.959-12.397 9.917-16.116zM649.607 431.651v0c-13.637 0-23.554 9.918-23.554 22.315v1.24c0 12.397 9.918 22.315 22.315 22.315h1.24c12.397 0 22.315-9.918 22.315-22.315v-1.24c0-12.397-9.918-22.315-22.315-22.315zM859.119 431.651h-143.807c-12.397 0-22.315 9.918-22.315 22.315v2.48c0 12.397 9.918 22.315 22.315 22.315h143.807c12.397 0 22.315-9.918 22.315-22.315v-2.48c0-12.397-9.918-22.315-22.315-22.315zM648.368 316.358v0c-12.397 0-23.554 9.917-23.554 23.555v0c0 12.397 9.918 23.554 23.554 23.554v0c12.397 0 23.554-9.918 23.554-23.554v0c0-13.637-9.918-23.555-23.554-23.555zM857.879 316.358h-141.327c-12.397 0-23.554 9.917-23.554 23.555v1.239c0 12.397 9.918 23.555 23.554 23.555h142.567c12.397 0 23.554-9.918 23.554-23.555v-1.239c-1.24-13.637-11.158-23.555-24.794-23.555zM648.368 199.825v0c-12.397 0-23.554 9.918-23.554 23.555v0c0 12.397 9.918 23.554 23.554 23.554v0c12.397 0 23.554-9.917 23.554-23.554v0c0-12.397-9.918-23.555-23.554-23.555zM857.879 199.825h-141.327c-12.397 0-23.554 9.918-23.554 23.555v1.239c0 12.397 9.918 23.554 23.554 23.554h142.567c12.397 0 23.554-9.917 23.554-23.554v-1.239c-1.24-13.637-11.158-23.555-24.794-23.555zM648.368 84.533v0c-12.397 0-23.554 9.918-23.554 23.555v0c0 12.397 9.918 23.555 23.554 23.555v0c12.397 0 23.554-9.918 23.554-23.555v0c0-13.637-9.918-23.555-23.554-23.555zM857.879 84.533h-141.327c-12.397 0-23.554 9.918-23.554 23.555v0c0 12.397 9.918 23.555 23.554 23.555h142.567c12.397 0 23.554-9.918 23.554-23.555v-1.24c-1.24-12.397-11.158-22.315-24.794-22.315zM649.607-32v0c-13.637 0-23.554 9.918-23.554 22.315v1.24c0 12.397 9.918 22.315 22.315 22.315h1.24c12.397 0 22.315-9.918 22.315-22.315v-1.24c0-12.397-9.918-22.315-22.315-22.315zM859.119-32h-143.807c-12.397 0-22.315 9.918-22.315 22.315v2.479c0 12.397 9.918 22.315 22.315 22.315h143.807c12.397 0 22.315-9.918 22.315-22.315v-2.479c0-12.397-9.918-22.315-22.315-22.315z" />
<glyph unicode="&#xe639;" glyph-name="gift_A" horiz-adv-x="502" d="M292-32h168c12 0 20 10 20 22v126h-190v-148zM20-10c0-12 10-22 20-22h178v148h-198v-126zM482 378h-90c24 28 30 58 16 80-10 14-26 20-46 20s-44-8-64-22c-16-10-28-26-36-40-8 16-22 30-36 40-22 16-44 24-66 24-20 0-36-8-46-20-14-22-8-54 16-80v0h-110c-12 0-20-10-20-22v-82c0-12 8-22 20-22v-82h200v206h-56l-8 8c-18 18-24 40-14 54 6 8 16 12 28 12 14 0 30-6 44-16 22-14 34-36 32-54v-6h30v6c-2 18 10 40 32 54 14 10 30 16 44 16 12 0 22-4 28-12 10-14 4-36-14-56l-6-6h-66v-208h190v82c10 0 20 10 20 22v82c-2 12-12 22-22 22z" />
<glyph unicode="&#xe63a;" glyph-name="heart" horiz-adv-x="571" d="M418.484 480c-46.758 0-95.854-25.717-130.923-84.164-37.406 58.447-86.502 84.164-133.261 84.164-156.639 0-296.913-278.21 130.922-512 430.173 233.79 289.899 512 133.26 512v0z" />
<glyph unicode="&#xe63b;" glyph-name="users" horiz-adv-x="659" d="M380.219 218.599c32.405 17.282 56.169 51.848 56.169 92.894 0 58.329-47.527 105.856-105.856 105.856s-105.856-47.527-105.856-105.856c0-41.046 21.603-75.612 56.169-92.894-71.291-2.161-129.62-62.65-129.62-136.101v-112.338l8.642-2.16c138.262 0 343.493-2.16 345.654 0l6.481 4.32v110.177c-2.161 73.452-60.49 131.781-131.78 136.101zM203.071 311.494c0-32.405 15.123-64.81 38.886-86.414-64.81-15.122-112.338-73.451-112.338-142.583v-51.848c-41.047 0-82.093 0-118.819 0l-10.802 2.161v112.338c0 73.452 58.329 131.78 129.62 136.101-32.405 17.283-54.008 51.848-54.008 92.894 0 58.329 47.528 105.856 105.856 105.856 43.207 0 79.933-23.763 95.055-60.489-43.207-17.283-73.452-58.329-73.452-108.017zM455.831 311.494c0-32.405-15.123-64.81-38.886-86.414 64.81-15.122 112.338-73.451 112.338-142.583v-51.848c41.047 0 82.093 0 118.818 0l6.481 2.161v112.338c0 73.452-58.329 131.78-129.62 136.101 36.726 17.283 58.329 51.848 58.329 92.894 0 58.329-47.528 105.856-105.856 105.856-43.207 0-79.933-23.763-95.055-60.489 43.207-17.283 73.452-58.329 73.452-108.017z" />
<glyph unicode="&#xe63c;" glyph-name="snowflake" d="M464.896 203.008l-108.544-29.184-86.528 50.176 86.528 49.664 108.544-29.184c0.512 0 1.024 0 2.048 0 3.072 0 6.144 2.048 6.656 5.12 1.024 3.584-1.024 7.68-5.12 8.704l-94.72 25.6 90.624 52.224c3.584 2.048 4.608 6.144 2.56 9.728s-6.144 4.608-9.728 2.56l-90.624-52.224 25.6 94.72c1.024 3.584-1.024 7.68-5.12 8.704-3.584 1.024-7.68-1.024-8.704-5.12l-29.184-108.544-86.528-49.664v99.328l79.36 79.36c2.56 2.56 2.56 7.168 0 9.728s-7.168 2.56-9.728 0l-69.12-69.12v104.448c0 4.096-3.072 7.168-7.168 7.168s-7.168-3.072-7.168-7.168v-104.448l-69.12 69.632c-2.56 2.56-7.168 2.56-9.728 0s-2.56-7.168 0-9.728l79.36-79.36v-99.84l-86.528 49.664-29.184 108.544c-1.024 3.584-4.608 6.144-8.704 5.12-3.584-1.024-6.144-4.608-5.12-8.704l25.6-94.72-90.112 51.712c-3.584 2.048-7.68 1.024-9.728-2.56s-1.024-7.68 2.56-9.728l90.112-51.712-94.72-25.6c-3.584-1.024-6.144-4.608-5.12-8.704 1.024-3.072 3.584-5.12 6.656-5.12 0.512 0 1.024 0 2.048 0l108.544 29.184 86.528-49.664-86.528-49.664-108.544 28.672c-3.584 1.024-7.68-1.024-8.704-5.12-1.024-3.584 1.024-7.68 5.12-8.704l94.72-25.6-90.112-51.712c-3.584-2.048-4.608-6.144-2.56-9.728 1.536-2.048 3.584-3.584 6.144-3.584 1.024 0 2.56 0.512 3.584 1.024l90.112 52.736-25.6-94.72c-1.024-3.584 1.024-7.68 5.12-8.704 0.512 0 1.024 0 2.048 0 3.072 0 6.144 2.048 6.656 5.12l29.184 108.544 86.528 49.664v-99.84l-79.872-79.36c-2.56-2.56-2.56-7.168 0-9.728s7.168-2.56 9.728 0l69.632 69.632v-104.448c0-4.096 3.072-7.168 7.168-7.168s7.168 3.072 7.168 7.168v103.936l69.632-69.632c1.536-1.536 3.072-2.048 5.12-2.048s3.584 0.512 5.12 2.048c2.56 2.56 2.56 7.168 0 9.728l-79.872 79.872v99.328l86.528-49.664 29.184-108.544c1.024-3.072 3.584-5.12 6.656-5.12 0.512 0 1.024 0 2.048 0 3.584 1.024 6.144 4.608 5.12 8.704l-25.6 94.72 90.624-52.224c1.024-0.512 2.56-1.024 3.584-1.024 2.56 0 4.608 1.024 6.144 3.584 2.048 3.584 1.024 7.68-2.56 9.728l-91.136 52.224 94.72 25.6c3.584 1.024 6.144 4.608 5.12 8.704-1.024 3.584-5.12 5.632-8.704 4.608z" />
<glyph unicode="&#xe63d;" glyph-name="notebook" d="M450.467 449.469h-360.75v-59.185h-42.276c-8.456 0-16.91-5.637-16.91-14.092v-31.002c0-8.455 8.455-16.91 16.91-16.91h45.094v-31.002h-45.094c-8.456 2.818-16.91-2.818-16.91-11.274v-31.002c0-8.455 8.456-16.91 16.91-16.91h45.094v-31.002h-45.094c-8.456 2.818-16.91-2.818-16.91-11.274v-31.002c0-8.455 8.456-16.911 16.91-16.911h45.094v-31.002h-45.094c-8.456 0-16.91-5.637-16.91-14.092v-31.002c0-8.455 8.456-16.911 16.91-16.911h45.094v-56.367h360.75c16.911 0 28.185 14.092 28.185 31.002v391.752c0 16.91-14.092 28.183-31.002 28.183zM179.904 29.533h-59.184v31.002h16.91c8.455 0 14.092 8.455 14.092 16.911v31.002c0 8.455-5.637 14.092-14.092 14.092h-16.91v31.002h16.91c8.455 0 14.092 8.456 14.092 16.911v25.365c0 8.455-5.637 14.092-14.092 14.092h-16.91v31.002h16.91c8.455 0 14.092 8.456 14.092 16.911v28.185c0 8.456-5.637 14.092-14.092 14.092h-16.91v28.186h16.91c8.455 0 14.092 8.455 14.092 16.91v31.002c0 8.455-5.637 14.092-14.092 14.092h-16.91v28.183h59.184v-388.934z" />
<glyph unicode="&#xe63e;" glyph-name="warning" d="M499.507 26.061l-228.045 400.154c-3.149 5.53-9.063 8.935-15.463 8.935s-12.288-3.405-15.463-8.935l-228.019-400.154c-3.098-5.427-3.046-12.058 0.128-17.433s9.011-8.678 15.309-8.678h456.064c6.247 0 12.109 3.303 15.309 8.678 3.175 5.376 3.226 12.007 0.179 17.433zM284.16 51.149h-56.32v51.2h56.32v-51.2zM284.16 140.749h-56.32v153.6h56.32v-153.6z" />
<glyph unicode="&#xe63f;" glyph-name="arrow-down" d="M343.501 291.815c6.938 6.861 18.151 6.861 25.063 0 6.938-6.861 6.938-17.945 0-24.806l-100.019-98.048c-6.938-6.861-18.15-6.861-25.063 0l-100.045 98.048c-6.912 6.861-6.912 17.945 0 24.806 6.938 6.861 18.125 6.861 25.063 0l87.501-80.384 87.501 80.384z" />
<glyph unicode="&#xe640;" glyph-name="arrow-up" d="M168.474 168.986c-6.938-6.861-18.125-6.861-25.063 0-6.912 6.861-6.938 17.945 0 24.832l100.045 97.997c6.938 6.861 18.151 6.861 25.063 0l100.045-98.023c6.938-6.887 6.938-17.971 0-24.832s-18.125-6.861-25.063 0l-87.526 80.41-87.501-80.384z" />
<glyph unicode="&#xe641;" glyph-name="house" d="M480.512 222.72l-205.415 205.594c-10.496 10.906-27.673 10.906-38.169 0l-205.44-205.594c-10.521-10.88-6.605-19.815 8.704-19.815h42.829v-157.901c0-11.392 0.487-20.711 21.094-20.711h99.712v158.413h104.32v-158.413h104.678c15.719 0 16.154 9.293 16.154 20.711v157.901h42.803c15.283 0 19.226 8.909 8.729 19.815z" />
<glyph unicode="&#xe642;" glyph-name="link" d="M201.19 110.233l-20.736-20.582c-17.971-17.792-47.181-17.817-65.126 0-8.627 8.576-13.363 19.917-13.363 32.026s4.761 23.475 13.363 32.051l76.288 75.699c15.795 15.693 45.542 38.758 67.226 17.255 9.959-9.881 26.035-9.805 35.891 0.128 9.882 9.933 9.83 26.010-0.128 35.891-36.839 36.557-91.315 29.798-138.752-17.255l-76.288-75.699c-18.279-18.176-28.365-42.343-28.365-68.070 0-25.702 10.087-49.869 28.391-68.045 18.841-18.714 43.571-28.032 68.301-28.032s49.511 9.318 68.352 28.032l20.736 20.608c9.958 9.882 10.010 25.959 0.128 35.865-9.881 9.933-25.958 9.984-35.917 0.128zM432.409 404.25c-39.577 39.27-94.899 41.395-131.558 5.043l-25.831-25.625c-9.959-9.882-10.035-25.933-0.154-35.891 9.907-9.959 25.959-10.010 35.891-0.128l25.83 25.625c18.969 18.841 43.827 11.034 60.058-5.043 8.627-8.55 13.363-19.942 13.363-32.025 0-12.109-4.762-23.475-13.363-32.026l-81.408-80.743c-37.197-36.915-54.682-19.61-62.131-12.211-9.958 9.882-26.010 9.805-35.865-0.128-9.881-9.959-9.831-26.035 0.128-35.891 17.075-16.947 36.608-25.344 57.037-25.344 25.037 0 51.481 12.595 76.621 37.555l81.382 80.743c18.304 18.15 28.39 42.317 28.39 68.019s-10.087 49.894-28.39 68.070z" />
<glyph unicode="&#xe643;" glyph-name="arrow-left_A" d="M317.414 142.899c6.861-6.938 6.861-18.151 0-25.063-6.861-6.938-17.945-6.938-24.807 0l-98.048 100.019c-6.861 6.938-6.861 18.151 0 25.063l98.048 100.045c6.861 6.938 17.945 6.938 24.807 0s6.861-18.125 0-25.063l-80.384-87.501 80.384-87.501z" />
<glyph unicode="&#xe644;" glyph-name="arrow-right_A" d="M194.585 142.899c-6.861-6.938-6.861-18.151 0-25.063 6.835-6.938 17.946-6.938 24.806 0l98.048 100.019c6.861 6.938 6.861 18.151 0 25.063l-98.048 100.045c-6.861 6.938-17.946 6.938-24.806 0s-6.861-18.125-0.025-25.037l80.409-87.527-80.384-87.501z" />
<glyph unicode="&#xe645;" glyph-name="discussions" horiz-adv-x="583" d="M475.428 480h-238.934c-58.514 0-107.276-48.762-107.276-109.714v-2.438h43.886v2.438c0 34.133 29.257 65.829 63.391 65.829h236.495c36.572 0 63.39-29.257 63.39-65.829v-129.219c0-34.134-26.819-60.952-58.514-63.39v-43.885c58.514 2.438 104.838 48.762 104.838 107.276v129.219c0 60.952-48.762 109.714-107.276 109.714zM368.152 331.276l-287.695 4.876c-43.886 0-78.019-34.134-78.019-75.581l-2.438-156.038c0-43.885 34.133-78.019 75.581-78.019l192.609-2.438 104.838-53.638c7.315-2.438 14.628-2.438 19.505 2.438s9.752 12.19 7.315 19.505l-4.876 31.695c24.381 0 46.324 19.505 46.324 43.885l2.438 187.733c2.438 41.447-31.695 75.581-75.581 75.581zM334.019 111.848h-221.867c-12.191 0-21.943 9.752-21.943 21.943s9.752 21.943 21.943 21.943h221.867c12.19 0 21.943-9.752 21.943-21.943s-9.752-21.943-21.943-21.943zM334.019 199.619h-221.867c-12.191 0-21.943 9.752-21.943 21.943s9.752 21.943 21.943 21.943h221.867c12.19 0 21.943-9.752 21.943-21.943s-9.752-21.943-21.943-21.943z" />
<glyph unicode="&#xe646;" glyph-name="files" horiz-adv-x="449" d="M417.365 416.91h-31.545v31.545c0 16.986-14.559 31.545-31.545 31.545h-322.73c-16.986 0-31.545-14.559-31.545-31.545v-383.394c0-16.986 14.559-31.545 31.545-31.545h31.545v-31.545c0-16.986 14.559-31.545 31.545-31.545h320.303c16.986 0 31.545 14.559 31.545 31.545v380.967c2.426 19.412-12.132 33.971-29.118 33.971zM31.545 62.635v385.82h320.303v-383.394h-320.303zM417.365-0.455h-320.303v31.545h257.214c16.986 0 31.545 14.559 31.545 31.545v320.303h31.545v-383.394zM303.317 382.938h-160.151c-7.28 0-14.559-7.279-14.559-14.559 0-9.706 7.28-16.986 16.986-16.986h160.152c9.706 0 16.986 7.279 16.986 16.986-2.426 7.279-9.706 14.559-19.413 14.559zM303.317 288.303h-223.242c-9.706 0-16.986-7.279-16.986-16.986s7.279-16.986 16.986-16.986h223.242c9.706 0 16.986 7.28 16.986 16.986s-7.279 16.986-16.986 16.986zM303.317 222.786h-223.242c-9.706 0-16.986-7.279-16.986-16.986s7.279-16.986 16.986-16.986h223.242c9.706 0 16.986 7.279 16.986 16.986s-7.279 16.986-16.986 16.986zM303.317 159.697h-223.242c-9.706 0-16.986-7.279-16.986-16.986s7.279-16.986 16.986-16.986h223.242c9.706 0 16.986 7.279 16.986 16.986s-7.279 16.986-16.986 16.986z" />
<glyph unicode="&#xe647;" glyph-name="arrow-down_A" d="M256 480c-141.376 0-256-114.624-256-256 0-141.392 114.624-256 256-256 141.392 0 256 114.608 256 256 0 141.376-114.608 256-256 256zM256 96l-128 128h96v128h64v-128h96l-128-128z" />
<glyph unicode="&#xe648;" glyph-name="minus_A" d="M256 445.44c-118.784 0-215.040-96.307-215.040-215.040 0-118.784 96.281-215.040 215.040-215.040s215.040 96.281 215.040 215.040c0 118.758-96.281 215.040-215.040 215.040zM385.28 256.563v-52.352h-258.56v52.352h258.56z" />
<glyph unicode="&#xe649;" glyph-name="plus_A" d="M256 445.44c-118.784 0-215.040-96.307-215.040-215.040 0-118.784 96.281-215.040 215.040-215.040s215.040 96.281 215.040 215.040c0 118.758-96.281 215.040-215.040 215.040zM282.163 204.237v-103.091h-52.327v103.091h-103.117v52.327h103.091v103.117h52.352v-103.091h103.091v-52.352h-103.091z" />
<glyph unicode="&#xe64a;" glyph-name="cross" d="M256 445.44c-118.784 0-215.040-96.307-215.040-215.040 0-118.784 96.281-215.040 215.040-215.040s215.040 96.281 215.040 215.040c0 118.758-96.281 215.040-215.040 215.040zM300.262 230.4l78.362-78.362-44.262-44.262-78.362 78.362-78.362-78.361-44.237 44.262 78.336 78.362-78.336 78.336 44.237 44.262 78.362-78.336 78.361 78.336 44.262-44.237-78.362-78.362z" />
<glyph unicode="&#xe64b;" glyph-name="expand" horiz-adv-x="630" d="M465.836 59.953v-46.164c0-12.59-8.394-20.983-20.983-20.983h-402.885c-12.59 0-16.787 8.394-16.787 20.983v247.606h92.328v92.328h-79.737c-20.983 0-37.77-16.787-37.77-37.771v-314.754c0-20.983 16.787-37.77 37.77-37.77h411.279c20.983 0 37.771 16.787 37.771 37.77v58.754h-20.983zM92.328 324.347c8.394 0 16.787-8.394 16.787-16.787s-8.394-16.787-16.787-16.787c-8.394 0-16.787 8.393-16.787 16.787-4.197 8.394 4.197 16.787 16.787 16.787zM41.967 324.347c8.394 0 16.787-8.394 16.787-16.787s-8.393-16.787-16.787-16.787c-8.394 0-16.787 8.393-16.787 16.787s8.393 16.787 16.787 16.787zM629.508 437.658c0 20.983-16.787 37.771-37.77 37.771h-411.279c-20.983 0-41.967-16.787-41.967-37.771v-314.754c0-20.983 16.787-37.77 37.77-37.77h411.279c20.984 0 37.77 16.787 37.77 37.77v314.754zM281.18 446.052c8.394 0 16.787-8.394 16.787-16.787s-8.394-16.787-16.787-16.787c-8.394 0-16.787 8.394-16.787 16.787s8.394 16.787 16.787 16.787zM235.017 446.052c8.393 0 16.787-8.394 16.787-20.983 0-8.394-8.393-16.787-16.787-16.787s-20.983 8.394-20.983 16.787c0 12.59 8.393 20.983 20.983 20.983zM184.655 446.052c8.393 0 16.787-8.394 16.787-16.787s-8.393-16.787-16.787-16.787c-8.393-4.197-16.787 4.197-16.787 12.59 0 12.59 8.393 20.983 16.787 20.983zM604.328 135.494c0-12.59-8.394-20.983-16.787-20.983h-402.885c-12.59 0-20.983 8.394-20.983 20.983v247.606h440.656v-247.606zM457.442 324.347l-8.394-96.524c0 0 0-12.59-8.394-4.197s-25.18 25.18-25.18 25.18-4.197-8.394-8.394-12.59c-20.983-20.983-54.558-54.557-67.147-67.147 0 0-4.197-4.197-8.394 0-8.394 4.197-33.574 33.574-37.77 37.77-4.197 0 0 4.197 0 4.197 12.59 12.59 50.361 50.361 67.147 67.147 4.197 4.197 8.394 8.393 8.394 8.393s-12.59 16.787-20.983 25.18c-8.394 8.394 4.197 8.394 4.197 8.394s88.131 12.59 96.524 12.59c8.394 0 8.394-8.393 8.394-8.393z" />
<glyph unicode="&#xe64c;" glyph-name="retract" horiz-adv-x="628" d="M462.799 13.655c0-10.763-9.738-19.988-20.5-19.988h-399.247c-10.763 0-18.963 8.712-18.963 19.988v248.568h91.739v91.74h-76.877c-21.526 0-38.951-17.425-38.951-38.951v-311.607c0-21.526 17.425-39.464 38.951-39.464h409.498c21.526 0 38.438 17.426 38.438 39.464v57.914h-24.088v-47.663zM90.715 323.213c10.251 0 18.451-8.2 18.451-18.451s-8.2-18.963-18.451-18.963-18.451 8.2-18.451 18.45 8.2 18.963 18.451 18.963zM42.026 323.213c10.251 0 18.45-8.2 18.45-18.451s-8.2-18.963-18.451-18.963-18.451 8.2-18.451 18.45 8.2 18.963 18.451 18.963zM627.316 436.478c0 21.526-17.425 38.951-38.951 38.951h-408.985c-21.525 0-38.951-17.425-38.951-38.951v-312.632c0-21.526 17.425-38.951 38.951-38.951h408.985c21.525 0 38.951 17.425 38.951 38.951v312.632zM281.882 444.678c10.25 0 18.45-8.2 18.45-18.45s-8.712-18.451-18.45-18.451-18.45 8.2-18.45 18.451 7.688 18.451 18.45 18.451zM232.68 444.678c10.25 0 18.451-8.2 18.451-18.45s-8.2-18.451-18.451-18.451-18.451 8.2-18.451 18.451c0 10.25 8.713 18.451 18.451 18.451zM183.992 444.678c10.25 0 18.451-8.2 18.451-18.45s-8.2-18.451-18.451-18.451-18.451 8.2-18.451 18.451 8.2 18.451 18.451 18.451zM603.227 135.12c0-10.763-8.2-19.988-18.963-19.988h-399.76c-10.763 0-20.5 9.225-20.5 19.988v248.568h439.223v-248.568zM419.235 330.9c-5.637 5.637-8.712 1.025-8.712 1.025-13.838-13.838-48.176-48.176-67.139-67.139-6.663-6.663-10.763-10.763-10.763-10.763s-17.425 17.425-25.113 25.113c-7.175 7.175-6.663-5.637-6.663-5.637l-9.225-97.89c0 0-0.512-7.688 6.663-7.688 10.763 0 98.403 12.3 98.403 12.3s13.325 0 4.613 8.712c-8.712 8.712-23.063 23.063-23.063 23.063s3.587 3.587 9.738 9.738c17.938 17.938 53.814 53.814 67.139 67.139 0 0 3.075 3.075-1.025 7.175s-29.213 29.213-34.851 34.851z" />
<glyph unicode="&#xe64d;" glyph-name="user_A" horiz-adv-x="403" d="M402.286 74q0-34.286-20.857-54.143t-55.428-19.857h-249.714q-34.572 0-55.428 19.857t-20.857 54.143q0 15.143 1 29.572t4 31.143 7.572 31 12.285 27.857 17.715 23.143 24.428 15.286 31.857 5.714q2.572 0 12-6.143t21.285-13.714 30.857-13.714 38.143-6.143 38.143 6.143 30.857 13.714 21.286 13.714 12 6.143q17.428 0 31.857-5.714t24.428-15.285 17.714-23.143 12.286-27.857 7.572-31 4-31.143 1-29.572zM310.857 329.143q0-45.428-32.143-77.572t-77.572-32.143-77.572 32.143-32.143 77.572 32.143 77.571 77.572 32.143 77.572-32.143 32.143-77.571z" />
<glyph unicode="&#xe64e;" glyph-name="at" d="M477.504 96c21.936 37.68 34.496 81.248 34.496 128 0 141.376-114.624 256-256 256s-256-114.624-256-256 114.624-256 256-256c70.688 0 134.688 28.624 180.992 75.008l-45.312 45.312c-34.736-34.816-82.736-56.32-135.68-56.32-105.872 0-192 86.128-192 192s86.128 192 192 192 192-86.128 192-192c0-22.752-4.368-44.496-11.68-64.752l-0.512 0.752h-51.808v191.312h-128c-70.688 0-128-57.312-128-128s57.312-128 128-128c29.376 0 56.128 10.32 77.744 26.944 11.632-15.504 29.376-26.256 50.256-26.256h93.504zM320 255.872v-32.56c0-35.312-28.752-64-64-64s-64 28.688-64 64 28.752 64 64 64h64v-31.44z" />
<glyph unicode="&#xe64f;" glyph-name="eye" d="M256 373.76c-167.962 0-256-123.699-256-143.36 0-19.61 88.038-143.36 256-143.36 167.936 0 256 123.75 256 143.36 0 19.661-88.064 143.36-256 143.36zM256 120.141c-62.848 0-113.792 49.357-113.792 110.259s50.944 110.311 113.792 110.311c62.848 0 113.767-49.408 113.767-110.311s-50.918-110.259-113.767-110.259zM256 230.4c-10.419 11.443 16.973 55.143 0 55.143-31.437 0-56.909-24.704-56.909-55.143s25.472-55.143 56.909-55.143c31.411 0 56.909 24.704 56.909 55.143 0 14.003-48.051-9.703-56.909 0z" />
<glyph unicode="&#xe650;" glyph-name="search" d="M499.2 45.349l-117.76 117.76c-17.92-28.16-40.96-51.2-69.12-69.12l117.76-117.76c17.92-17.92 48.64-17.92 69.12 0 17.92 20.48 17.92 51.2 0 69.12zM384 283.429c0 104.96-87.040 192-192 192s-192-87.040-192-192 87.040-192 192-192 192 87.040 192 192zM192 140.069c-79.36 0-143.36 64-143.36 143.36s64 143.36 143.36 143.36 143.36-64 143.36-143.36-64-143.36-143.36-143.36zM79.36 283.429h30.72c0 43.52 35.84 79.36 79.36 79.36v33.28c-58.88 0-110.080-51.2-110.080-112.64z" />
<glyph unicode="&#xe651;" glyph-name="platzi" horiz-adv-x="453" d="M197.12 452.389l-174.080-174.080c-33.28-33.28-33.28-84.48 0-115.2l174.080-174.080c33.28-33.28 84.48-33.28 115.2 0l58.88 58.88-58.88 58.88-56.32-61.44-174.080 174.080 174.080 174.080 115.2-115.2-115.2-117.76 58.88-58.88 115.2 115.2c33.28 33.28 33.28 84.48 0 115.2l-115.2 115.2c-33.28 35.84-84.48 35.84-117.76 5.12z" />
<glyph unicode="&#xe652;" glyph-name="pin" horiz-adv-x="338" d="M168.96 475.429c-92.16 0-168.96-76.8-168.96-168.96 0-38.4 23.040-99.84 74.24-186.88 35.84-61.44 69.12-115.2 71.68-117.76l25.6-38.4 25.6 38.4c2.56 2.56 35.84 53.76 71.68 117.76 48.64 89.6 74.24 151.040 74.24 186.88-5.12 92.16-79.36 168.96-174.080 168.96zM168.96 219.429c-48.64 0-87.040 38.4-87.040 87.040s38.4 87.040 87.040 87.040c48.64 0 87.040-38.4 87.040-87.040s-38.4-87.040-87.040-87.040z" />
<glyph unicode="&#xe653;" glyph-name="doc_A" horiz-adv-x="506" d="M482.127-25.6h-458.286c-13.172 0-23.843 10.692-23.843 23.885v464.252c0 13.172 10.67 23.864 23.843 23.864h458.286c13.194 0 23.863-10.692 23.863-23.864v-464.252c0-13.193-10.67-23.885-23.863-23.885zM47.706 22.127h410.558v416.567h-410.558v-416.567zM74.606 272.589h255.572v-47.706h-255.572v47.706zM391.954 272.589h39.43v-47.706h-39.43v47.706zM74.606 121.623h255.572v-47.685h-255.572v47.685zM391.954 121.623h39.43v-47.685h-39.43v47.685zM74.606 195.417h176.177v-47.728h-176.177v47.728zM391.954 195.417h39.43v-47.728h-39.43v47.728zM126.439 404.374h248.687v-82.625h-248.687v82.625z" />
<glyph unicode="&#xe654;" glyph-name="users_A" d="M272.896 110.373c12.288 17.408 18.432 36.352 18.944 57.856 0.512 29.184-10.752 55.296-31.744 75.264-19.968 18.944-44.544 29.184-70.144 29.184-24.576 0-48.128-9.216-68.608-26.112-18.944-15.872-30.208-36.864-33.792-61.44-3.584-27.136 2.048-52.224 17.408-73.728-58.368-19.968-76.288-71.168-72.704-116.736 0.512-6.656 6.144-10.752 12.8-10.752h285.696c6.144 0 11.776 4.096 12.8 10.24 3.584 26.624-0.512 49.152-12.8 69.632-12.8 23.040-32.256 37.888-57.856 46.592zM318.976 9.509h-261.632c0.512 25.6 10.752 71.168 72.704 81.92 4.608 1.024 8.704 3.584 10.24 8.192s0 9.216-3.072 12.8c-19.968 19.968-27.648 41.984-24.064 68.608 2.56 18.432 10.752 33.28 25.088 45.568 15.872 13.312 33.792 19.968 51.712 19.968 18.944 0 37.376-7.68 52.736-22.016 15.872-15.36 24.064-34.304 23.552-56.32-0.512-21.504-8.704-39.936-25.6-56.32-3.584-3.584-4.608-8.192-3.072-12.8s5.632-8.192 10.24-8.704c28.672-4.608 48.128-16.384 61.44-38.4 7.168-13.312 10.752-27.136 9.728-42.496zM485.888 121.125c-0.512 24.064-11.776 45.056-30.208 61.44-14.336 12.8-31.232 19.968-51.712 23.040 2.048 2.56 3.584 4.096 4.608 5.12 27.136 29.696 32.256 69.632 13.312 104.96-18.432 33.792-54.784 51.2-95.232 45.056-34.816-5.12-64.512-35.84-71.68-72.192-1.536-8.192 1.024-11.264 7.68-14.336 44.544-23.040 69.632-73.728 60.928-123.392-2.048-10.752-5.632-22.016-8.704-33.28 46.080-27.648 66.56-67.072 62.976-123.392 35.84 0 71.168 0 106.496 0 0.512 0 1.024 2.56 1.024 3.072 0 41.472 1.536 82.944 0.512 123.904zM56.32 337.189h40.96v-40.96c0-12.8 10.24-23.040 23.040-23.040s23.040 10.24 23.040 23.040v40.96h46.080c12.8 0 23.040 10.24 23.040 23.040s-10.24 23.040-23.040 23.040h-46.080v46.080c0 12.8-10.24 23.040-23.040 23.040s-23.040-10.24-23.040-23.040v-46.080h-40.96c-12.8 0-23.040-10.24-23.040-23.040s10.24-23.040 23.040-23.040z" />
<glyph unicode="&#xe655;" glyph-name="bell" horiz-adv-x="464" d="M363.52 265.984c-64.512 139.264-98.304 192-203.776 189.952-37.888-1.024-28.672 27.136-57.344 16.384s-4.096-26.112-33.28-50.176c-82.432-67.584-74.752-130.048-36.864-279.040 16.384-62.464-38.4-65.536-16.896-126.464 15.872-44.544 132.608-62.976 256-17.408 122.88 46.080 200.704 136.704 184.832 181.248-21.504 60.928-65.536 27.136-92.672 85.504zM258.048 37.12c-110.080-40.96-200.704-16.896-204.288-6.144-6.656 18.432 35.328 79.872 161.28 126.464s196.096 29.184 203.264 8.704c4.096-12.288-50.176-88.064-160.256-129.024zM227.84 130.816c-57.344-21.504-97.28-45.568-123.392-67.584 18.432-16.384 52.224-20.48 86.528-8.192 43.52 15.872 69.632 52.736 59.392 82.432 0 0.512-0.512 0.512-0.512 1.024-7.168-2.56-14.336-5.12-22.016-7.68z" />
<glyph unicode="&#xe656;" glyph-name="cog" d="M512 192.496v64l-76.496 31.872c-2.128 6-4.368 11.808-7.12 17.504l30.88 76.88-45.264 45.248-76.192-31.376c-5.808 2.816-11.744 5.184-17.872 7.376l-32.432 76h-64l-31.632-75.744c-6.368-2.256-12.496-4.624-18.56-7.504l-76.064 30.56-45.248-45.248 31.008-75.376c-3.008-6.192-5.44-12.496-7.76-19.008l-75.248-32.176v-64l75.312-31.376c2.32-6.496 4.816-12.816 7.808-19.008l-30.432-75.872 45.248-45.248 75.568 31.12c6.064-2.88 12.256-5.184 18.624-7.376l32.368-75.744h64l31.68 76.128c6.064 2.256 12.064 4.624 17.808 7.376l76.752-30.752 45.248 45.248-31.504 76.368c2.688 5.744 4.88 11.568 7.008 17.504l76.512 32.624zM255.504 128c-52.992 0-96 43.008-96 96s43.008 96 96 96 96-43.008 96-96-43.008-96-96-96z" />
<glyph unicode="&#xe657;" glyph-name="cloud_A" d="M256 472.869c-138.752 0-250.88-98.304-250.88-219.136 0-81.408 51.2-152.576 126.464-189.952-10.24-31.744-36.864-61.44-58.368-76.8-5.12-3.584-1.536-13.312 3.584-19.456 4.096-4.608 31.232 6.656 46.592 12.8 34.304 13.824 57.856 33.28 86.016 56.832 9.728-1.024 36.352-2.56 46.592-2.56 138.752 0 250.88 98.304 250.88 219.136s-112.128 219.136-250.88 219.136zM280.064 105.765h-56.32v54.784h56.32v-54.784zM334.336 264.997c-4.608-6.656-13.824-15.36-27.648-26.112l-13.312-10.24c-7.168-5.632-12.288-12.288-14.336-19.968-1.536-4.608-2.56-12.288-2.56-22.528h-51.2c0.512 21.504 2.56 35.84 6.144 44.032s11.776 17.408 25.088 28.16l13.824 10.752c4.608 3.584 8.192 7.168 10.752 11.264 5.12 7.168 7.68 14.336 7.68 23.040 0 9.728-2.56 18.432-8.192 26.112s-15.872 11.776-30.72 11.776c-14.848 0-25.088-4.608-31.232-14.336s-9.216-19.968-9.216-30.208h-54.784c1.536 35.84 13.824 61.44 37.888 76.288 14.848 9.728 33.28 14.336 54.784 14.336 28.672 0 52.224-6.656 71.168-20.48s28.16-33.792 28.16-60.416c0-16.384-4.096-30.208-12.288-41.472z" />
<glyph unicode="&#xe658;" glyph-name="cloud" d="M256 32.496c-10.384 0-25.584 11.68-35.664 12.752-28.752-24.112-58.704-53.136-99.424-68.224-17.776-7.536-33.040-11.904-37.008-7.152-5.328 6.192-13.376 14.784-14.8 17.088 0.080 3.424 4.224 0.72 8.736 5.584 24.576 10.336 40.448 37.008 51.12 69.616-76.976 38.576-128.96 110.944-128.96 194.048 0 123.536 114.624 223.696 256 223.696s256-100.144 256-223.696-114.624-223.712-256-223.712z" />
<glyph unicode="&#xe659;" d="M274.432 220.453c0-3.584-2.56-6.144-6.144-6.144h-68.096c-3.584 0-6.144 2.56-6.144 6.144v20.48h-175.104v-144.384c0-14.848 11.776-26.624 26.624-26.624h366.080c14.848 0 26.624 11.776 26.624 26.624l0.512 143.872h-163.84v-19.968z" />
<glyph unicode="&#xe65a;" d="M194.048 272.677c0 3.584 2.56 6.144 6.144 6.144h68.608c3.584 0 6.144-2.56 6.144-6.144v-9.728h163.84v61.44c0 14.848-12.288 27.136-27.136 27.136h-74.24c-8.704 40.96-52.224 71.68-104.96 71.68s-96.256-31.232-104.96-71.68h-78.848c-14.848 0-27.136-12.288-27.136-27.136v-60.928h172.544v9.216zM232.448 387.365c31.232 0 57.344-9.216 65.536-39.936h-131.072c8.192 30.72 34.304 39.936 65.536 39.936z" />
<glyph unicode="&#xe65b;" d="M417.28 56.101c-39.936-22.528-77.824-6.144-95.744 18.432-19.968 27.648-17.408 67.072 6.144 91.648 24.576 24.576 62.976 28.672 91.136 9.216 31.232-21.504 38.912-57.344 20.992-96.768 11.776-11.776 24.064-24.064 36.352-36.352 3.072-3.072 6.656-6.656 9.728-9.728 6.656-7.168 6.656-16.384 0.512-23.040-6.144-6.144-15.872-6.656-22.528-0.512-8.704 8.192-16.896 16.896-25.6 25.088-7.168 7.168-13.824 14.336-20.992 22.016z" />
<glyph unicode="&#xe65c;" d="M417.28 56.101c-39.936-22.528-77.824-6.144-95.744 18.432-19.968 27.648-17.408 67.072 6.144 91.648 24.576 24.576 62.976 28.672 91.136 9.216 31.232-21.504 38.912-57.344 20.992-96.768 11.776-11.776 24.064-24.064 36.352-36.352 3.072-3.072 6.656-6.656 9.728-9.728 6.656-7.168 6.656-16.384 0.512-23.040-6.144-6.144-15.872-6.656-22.528-0.512-8.704 8.192-16.896 16.896-25.6 25.088-7.168 7.168-13.824 14.336-20.992 22.016zM429.568 116.517c0 27.648-22.528 50.688-50.688 50.688s-51.2-23.040-51.2-51.2c0-27.648 23.040-50.176 50.688-50.176 29.184-0.512 51.712 22.016 51.2 50.688z" />
<glyph unicode="&#xe65d;" d="M340.48 124.709c0.512 1.536 1.536 4.608 2.56 7.168 6.144 10.752 14.336 18.944 26.624 22.528 6.656 2.048 12.288-2.56 10.752-9.216-0.512-2.048-2.56-5.12-4.608-5.632-10.24-3.584-16.896-9.728-19.968-19.968-1.536-4.608-5.632-6.144-9.728-4.608-3.584 1.024-5.632 4.608-5.632 9.728z" />
<glyph unicode="&#xe65e;" glyph-name="cap" d="M84.531 179.507c11.879-48.154 26.983-69.146 77.363-91.187 50.406-22.016 74.343-46.080 94.106-46.080s42.163 21.043 92.57 43.111c50.406 21.99 36.966 28.749 48.845 76.851l-141.415-68.762-171.469 86.067zM499.481 304.999l-213.12 119.347c-16.691 9.344-44.007 9.344-60.697 0l-213.145-119.347c-16.691-9.344-16.691-24.653 0-33.997l213.12-119.347c16.691-9.344 44.006-9.344 60.698 0l137.779 77.159-149.401 34.995c-5.735-1.433-12.058-2.227-18.714-2.227-26.905 0-48.717 12.979-48.717 28.979s21.811 29.005 48.717 29.005c20.889 0 38.682-7.859 45.594-18.841l158.233-51.917 39.654 22.195c16.691 9.344 16.691 24.653 0 33.997zM434.355 78.797c-1.613-9.805 32.845-26.010 36.121 2.791 14.822 129.817-10.649 167.194-10.649 167.194l-35.712-19.994c0 0.026 30.285-28.8 10.24-149.991z" />
<glyph unicode="&#xe65f;" glyph-name="notebook_A" horiz-adv-x="371" d="M361.195 358.941l-238.14 122.748c-32.614 17.185-96.93-16.016-115.407-45.231-8.252-13.052-7.638-22.488-7.638-27.819l2.938-277.195c0.196-5.88 7.611-13.825 13.957-17.72 13.21-8.103 213.28-133.011 218.953-136.547 3.048-1.895 6.648-2.779 10.204-2.779 3.028 0 6.065 0.672 8.817 2.038 6.012 2.954 9.755 8.69 9.755 14.925v291.146c0 6.060-3.536 11.66-9.294 14.687l-216.451 120.833c2.45 4.758 12.083 14.825 29.782 24.092 18.646 9.765 32.614 6.076 35.821 4.838 0 0 207.728-111.168 214.084-114.476 6.325-3.303 6.452-3.8 6.452-9.453 0-5.647 0-276.279 0-276.279 0-13.782 13.999-19.424 24.262-19.424 10.257 0 21.202 10.056 21.202 19.424v297.498c-0.005 6.060-3.562 11.665-9.3 14.692z" />
<glyph unicode="&#xe660;" glyph-name="doc" horiz-adv-x="395" d="M92.532 334.336h218.787c18.315 0 18.315 28.439 0 28.439h-218.787c-18.316 0-18.316-28.439 0-28.439zM311.32 295.517h-218.787c-18.316 0-18.316-28.416 0-28.416h218.787c18.315 0 18.315 28.416 0 28.416zM311.32 233.216h-218.787c-18.316 0-18.316-28.44 0-28.44h218.787c18.315 0 18.315 28.44 0 28.44zM311.32 165.958h-218.787c-18.316 0-18.316-28.416 0-28.416h218.787c18.315 0.024 18.315 28.416 0 28.416zM307.084 102.539h-218.787c-18.316 0-18.316-28.44 0-28.44h218.787c18.339 0 18.339 28.44 0 28.44zM321.024 486.4h-321.024v-512h394.264v440.971l-73.24 71.029zM360.192 8.494h-326.098v443.811h269.358v-54.086h56.739v-389.725z" />
<glyph unicode="&#xe661;" glyph-name="arrows" horiz-adv-x="494" d="M165.808 269.536c1.822 1.822 1.822 3.644 1.822 5.466 0 151.232 78.349 187.673 96.57 198.605 3.644 1.822 3.644 1.822 0 1.822-120.256 0-194.961-85.637-194.961-200.427 0-1.822 0-3.644 0-5.466h-69.239l118.434-151.231 118.434 151.231h-71.060zM493.779 169.322l-118.434 151.231-118.434-151.231h71.060c-1.822-1.822-1.822-3.644-1.822-5.466 0-151.232-78.349-187.673-96.57-198.605-3.644-1.822-3.644-1.822 0-1.822 120.256 0 194.961 85.637 194.961 200.427 0 1.822 0 3.644 0 5.466h69.238z" />
<glyph unicode="&#xe662;" glyph-name="chart_B" horiz-adv-x="900" d="M836.619 216.79l-63.34 60.701-258.639-271.835c-7.918-7.918-21.113-13.196-31.67-13.196v0c-13.196 0-23.752 5.279-31.67 13.196l-176.825 182.103-197.938-211.134c-7.918-7.918-21.114-13.196-31.67-13.196s-21.113 5.279-31.67 13.196c-18.474 15.835-18.474 44.866-2.639 63.34l229.608 245.443c7.917 7.918 21.114 13.196 31.67 13.196 0 0 0 0 0 0 13.196 0 23.752-5.279 31.67-13.196l176.825-182.103 224.33 237.526-63.34 60.701 258.639 73.897-63.34-258.639z" />
<glyph unicode="&#xe663;" glyph-name="creditcard" d="M480 416h-448c-17.664 0-32-14.336-32-32v-320c0-17.664 14.336-32 32-32h448c17.664 0 32 14.336 32 32v320c0 17.664-14.336 32-32 32zM48 384h416c8.848 0 16-7.152 16-16v-48h-448v48c0 8.848 7.152 16 16 16zM464 64h-416c-8.848 0-16 7.152-16 16v144h448v-144c0-8.848-7.152-16-16-16z" />
<glyph unicode="&#xe664;" glyph-name="pause" d="M438.857 420.572v-402.286q0-7.428-5.428-12.857t-12.857-5.428h-146.286q-7.428 0-12.857 5.428t-5.428 12.857v402.286q0 7.428 5.428 12.857t12.857 5.429h146.286q7.428 0 12.857-5.429t5.428-12.857zM182.857 420.572v-402.286q0-7.428-5.429-12.857t-12.857-5.428h-146.286q-7.428 0-12.857 5.428t-5.428 12.857v402.286q0 7.428 5.428 12.857t12.857 5.429h146.286q7.429 0 12.857-5.429t5.428-12.857z" />
<glyph unicode="&#xe665;" glyph-name="envivo" d="M340.115 285.257l-67.291 67.292-100.206-100.937 100.206-100.206 33.646 32.914-33.645 33.645zM256 455.68c-111.909 0-203.337-91.428-203.337-203.337 0-100.205 73.143-184.32 168.96-200.411l34.377-68.755 34.377 68.755c95.817 16.091 168.228 99.475 168.228 200.411 0.731 111.909-90.697 203.337-202.606 203.337zM373.76 251.612l-67.291-67.291 33.646-33.646-33.645-33.645c-18.286-18.286-48.274-18.286-67.291 0l-100.206 100.937c-18.285 18.286-18.285 48.274 0 67.291l100.937 100.937c18.286 18.286 48.274 18.286 67.291 0l67.291-67.291c17.555-18.285 17.555-48.274-0.731-67.291z" />
<glyph unicode="&#xe666;" glyph-name="calendar_B" d="M371.967 217.893l-27.093 27.114-124.949-124.927-54.293 54.315-27.114-27.115 81.407-81.408 152.042 152.020zM435.157 424.272h-25.579v51.157h-51.157v-51.157h-204.843v51.157h-51.157v-51.157h-25.579c-28.416 0-50.965-23.125-50.965-51.242l-0.299-358.443c0-28.118 22.848-51.157 51.264-51.157h358.336c28.202 0 51.243 23.040 51.243 51.157v358.421c0 28.138-23.040 51.264-51.264 51.264zM435.157 14.587h-358.314v281.685h358.336v-281.685h-0.022z" />
<glyph unicode="&#xe667;" glyph-name="streaming" d="M289.646 54.857c-76.8 0-154.332 0-231.131 0-5.12 2.925-10.24 5.851-14.629 9.509-2.925 2.925-4.389 8.046-6.583 11.703 0 58.514 0 117.76 0 176.274 0.731 0.731 0.731 1.463 1.463 2.925 3.657 10.24 10.971 16.091 21.212 18.286 1.463 0 2.925 0.731 5.12 0.731 0 7.315 2.925 13.897 8.046 19.017s11.703 8.046 19.749 8.046c0 1.463 0 3.657 0 5.12 0 16.823 0 33.646 0 50.469 0 11.703 7.314 21.943 18.285 25.6 1.463 0.731 2.195 0.731 3.657 1.463 47.543 0 95.085 0 143.36 0 0-18.286 0-36.571 0-54.857-36.572 0-73.143 0-109.714 0 0-9.509 0-18.286 0-27.063 7.315 0 13.897-2.925 19.017-8.046s7.315-11.703 8.046-19.749c1.463 0 3.657 0 5.12 0 35.108 0 70.217 0 105.325 0 14.628 0 27.063-11.703 27.063-27.063 0-54.857 0-110.445 0-165.303 0-11.703-7.315-21.943-18.286-25.6-2.925 0-4.389-0.731-5.12-1.463zM147.017 109.714c-21.943 0-43.154 0-65.097 0-2.195 0-3.657 0-5.852 0-5.12-0.731-9.508-3.657-10.972-8.777-2.194-5.12-0.731-9.509 2.925-13.897 2.925-3.657 7.314-4.389 11.703-4.389 43.885 0 88.503 0 132.388 0 1.463 0 2.925 0 3.657 0 6.583 0.731 11.703 6.583 11.703 13.166s-5.12 12.435-11.703 13.897c-1.463 0-3.657 0-5.851 0-20.48 0-41.691 0-62.903 0zM474.697 54.857c-0.731 0.731-2.195 2.195-3.657 2.925-24.868 16.823-49.737 33.646-75.337 49.737-2.195 1.463-4.389 2.195-7.315 2.195-8.046 0-15.36 0-23.406 0-15.36 0-27.063 11.703-27.063 27.063 0 18.286 0 37.303 0 55.589 0 14.628 12.435 27.063 27.063 27.063 0 0 0 0 0.731 0 8.777 0 19.017-1.463 27.063 0.731s15.36 9.509 22.675 14.629c19.748 13.166 39.497 26.332 59.245 39.497 0-71.68 0-143.36 0-215.772 0.731-0.731 0-2.195 0-3.657zM371.565 384c2.195-0.732 4.389-2.195 6.583-2.926 10.971-5.851 16.823-18.285 13.897-30.72-2.925-13.166-13.166-21.212-26.332-21.212-25.6 0-51.931 0-77.531 0-1.463 0-2.925 0-5.12 0 0 18.286 0 36.571 0 54.857 29.988 0 59.245 0 88.503 0z" />
<glyph unicode="&#xe668;" glyph-name="certificate" horiz-adv-x="358" d="M357.783 296.537c0-98.799-80.092-178.892-178.892-178.892s-178.892 80.092-178.892 178.892c0 98.799 80.093 178.892 178.892 178.892s178.892-80.093 178.892-178.892zM261.243 187.043v-146.506l-70.632 27.142-8.945 3.701-8.945-3.393-75.258-28.993v148.357h163.779v-0.308zM310.593 211.718v24.674h-262.477v-269.262l33.62 12.954 99.624 38.246 129.542-51.817v245.205h-0.308z" />
<glyph unicode="&#xe669;" glyph-name="dolar" horiz-adv-x="284" d="M155.619 84.509c14.689 1.86 25.38 5.206 32.073 10.041 11.714 8.553 17.571 23.334 17.571 44.345 0 15.99-5.485 28.634-16.455 37.93-6.507 5.392-17.571 10.97-33.189 16.734v-109.050zM129.124 375.961c-16.177-0.372-28.169-4.695-35.978-12.969s-11.714-19.57-11.714-33.887c0-15.618 5.857-27.983 17.571-37.094 6.507-5.020 16.548-9.668 30.121-13.945v97.894zM156.177-33.745h-27.054v55.502c-36.629 4.091-63.961 12.086-81.997 23.986-31.795 21.382-47.413 57.825-46.855 109.329h75.303c2.603-23.428 6.229-39.139 10.877-47.135 7.252-12.457 21.475-20.546 42.672-24.264v119.091l-22.591 6.693c-35.513 10.412-60.568 24.915-75.164 43.508s-21.893 40.999-21.893 67.215c0 17.292 2.835 33.003 8.506 47.135s13.62 26.31 23.846 36.536c13.201 13.202 27.89 22.312 44.067 27.332 9.855 3.161 24.264 5.485 43.23 6.972v37.094h26.495v-37.651c30.308-2.417 54.106-9.855 71.399-22.312 31.423-19.895 47.692-52.154 48.808-96.779h-73.351c-1.488 16.548-4.276 28.634-8.367 36.257-7.066 13.202-19.895 20.452-38.489 21.755v-106.261c44.252-15.246 74.001-28.726 89.249-40.44 25.101-19.523 37.652-47.041 37.652-82.555 0-46.856-17.199-80.881-51.596-102.077-21.011-13.015-45.925-20.639-74.745-22.87v-56.059z" />
<glyph unicode="&#xe66a;" glyph-name="pointer" horiz-adv-x="505" d="M252.209-34.929c139.379 0 252.209 114.334 252.209 255.179s-112.83 255.179-252.209 255.179c-139.379 0-252.209-114.334-252.209-255.179s112.83-255.179 252.209-255.179v0zM252.209 24.006c-106.654 0-193.274 87.774-193.274 196.243s86.62 196.244 193.274 196.244c106.654 0 193.274-87.774 193.274-196.244s-86.62-196.243-193.274-196.243v0zM396.384 221.896c0-81.027-64.821-146.712-144.782-146.712s-144.782 65.685-144.782 146.712c0 81.027 64.821 146.713 144.782 146.713s144.782-65.685 144.782-146.713z" />
<glyph unicode="&#xe66b;" glyph-name="subscribe" d="M448 298.289v-270.86c0-35.344-28.656-64-64-64h-320c-35.344 0-64 28.656-64 64v320c0 35.344 28.656 64 64 64h270.844l-63.969-64h-206.875v-320h320v206.844l64 64.016zM398.875 430.179l-22.625-22.625 67.875-67.891 22.625 22.625-67.875 67.891zM444.125 475.429l-22.625-22.625 67.875-67.891 22.625 22.641-67.875 67.875zM150 181.241l67.875-67.875 203.625 203.657-67.875 67.891-203.625-203.673zM128 91.429h64l-64 64v-64z" />
</font>
</defs>
</svg>
